<?xml version="1.0" encoding="utf-8"?>
<!-- Generator: Adobe Illustrator 16.0.0, SVG Export Plug-In . SVG Version: 6.00 Build 0)  -->
<!DOCTYPE svg PUBLIC "-//W3C//DTD SVG 1.1//EN" "http://www.w3.org/Graphics/SVG/1.1/DTD/svg11.dtd">
<svg version="1.1" id="Layer_1" xmlns="http://www.w3.org/2000/svg" xmlns:xlink="http://www.w3.org/1999/xlink" x="0px" y="0px"
	 width="31.254px" height="31.254px" viewBox="0 0 31.254 31.254" enable-background="new 0 0 31.254 31.254" xml:space="preserve">
<g>
	<circle fill="#ED6D4F" cx="15.627" cy="15.627" r="15.627"/>
	<g>
		<g>
			<path fill="#FFFFFF" d="M12.569,24.06v-9.075h-2.112v-2.129h4.642V24.06H12.569z"/>
		</g>
		<g>
			<path fill="#FFFFFF" d="M20.242,10.244l-0.252,0.509c-0.281-0.174-0.637-0.282-0.918-0.282c-0.27,0-0.467,0.09-0.467,0.318
				c0,0.588,1.697,0.27,1.689,1.427c0,0.654-0.58,0.948-1.223,0.948c-0.467,0-0.965-0.156-1.283-0.444l0.246-0.492
				c0.275,0.246,0.719,0.396,1.068,0.396c0.293,0,0.521-0.102,0.521-0.342c0-0.653-1.68-0.288-1.674-1.439
				c0-0.648,0.564-0.923,1.176-0.923C19.527,9.92,19.953,10.04,20.242,10.244z"/>
			<path fill="#FFFFFF" d="M22.799,12.936c-0.252,0.15-0.518,0.234-0.787,0.234c-0.479,0-0.893-0.276-0.893-0.93v-1.655H20.67
				v-0.516h0.449V9.194h0.684v0.875h0.941v0.516h-0.941v1.529c0,0.33,0.125,0.432,0.342,0.432c0.145,0,0.293-0.048,0.479-0.138
				L22.799,12.936z"/>
		</g>
	</g>
</g>
</svg>
