<?xml version="1.0" encoding="utf-8"?>
<!-- Generator: Adobe Illustrator 16.0.0, SVG Export Plug-In . SVG Version: 6.00 Build 0)  -->
<!DOCTYPE svg PUBLIC "-//W3C//DTD SVG 1.1//EN" "http://www.w3.org/Graphics/SVG/1.1/DTD/svg11.dtd">
<svg version="1.1" id="Layer_1" xmlns="http://www.w3.org/2000/svg" xmlns:xlink="http://www.w3.org/1999/xlink" x="0px" y="0px"
	 width="31.254px" height="31.254px" viewBox="0 0 31.254 31.254" enable-background="new 0 0 31.254 31.254" xml:space="preserve">
<g>
	<circle fill="#ED6D4F" cx="15.627" cy="15.626" r="15.627"/>
	<g>
		<g>
			<path fill="#FFFFFF" d="M15.958,15.786c0,1.201-0.88,2.464-2.097,3.714l-2.481,2.592h4.962v2.113H8.099v-1.729l4.049-4.289
				c0.688-0.705,1.168-1.49,1.168-2.034c0-0.704-0.544-1.12-1.473-1.12c-0.928,0-2.064,0.544-3.057,1.408l-0.976-1.889
				c1.36-1.041,2.849-1.665,4.401-1.665C14.405,12.888,15.958,14.025,15.958,15.786z"/>
		</g>
		<g>
			<path fill="#FFFFFF" d="M20.455,11.3v1.984h-0.689v-1.793c0-0.479-0.288-0.773-0.768-0.773c-0.527,0.006-0.857,0.372-0.906,0.87
				v1.696h-0.689v-3.189h0.689v0.611c0.229-0.443,0.637-0.636,1.176-0.636C20.012,10.071,20.455,10.539,20.455,11.3z"/>
			<path fill="#FFFFFF" d="M24.422,13.285h-0.69V12.74c-0.228,0.371-0.612,0.575-1.121,0.575c-0.917,0-1.529-0.665-1.529-1.637
				c0-0.96,0.618-1.613,1.517-1.613c0.516,0,0.9,0.21,1.134,0.582V8.835h0.69V13.285z M23.731,11.702
				c0-0.617-0.401-1.049-0.978-1.049s-0.978,0.438-0.983,1.049c0.006,0.606,0.401,1.038,0.983,1.038
				C23.33,12.74,23.731,12.308,23.731,11.702z"/>
		</g>
	</g>
</g>
</svg>
