<?xml version="1.0" encoding="utf-8"?>
<!-- Generator: Adobe Illustrator 16.0.0, SVG Export Plug-In . SVG Version: 6.00 Build 0)  -->
<!DOCTYPE svg PUBLIC "-//W3C//DTD SVG 1.1//EN" "http://www.w3.org/Graphics/SVG/1.1/DTD/svg11.dtd">
<svg version="1.1" id="Layer_1" xmlns="http://www.w3.org/2000/svg" xmlns:xlink="http://www.w3.org/1999/xlink" x="0px" y="0px"
	 width="31.254px" height="31.254px" viewBox="0 0 31.254 31.254" enable-background="new 0 0 31.254 31.254" xml:space="preserve">
<g>
	<circle fill="#ED6D4F" cx="15.627" cy="15.627" r="15.627"/>
	<g>
		<g>
			<path fill="#FFFFFF" d="M13.201,17.653c1.697,0.24,2.897,1.313,2.897,3.058c0,2.129-1.633,3.617-4.21,3.617
				c-1.488,0-3.041-0.528-4.05-1.313l1.024-2.001c0.833,0.849,1.825,1.297,2.833,1.297c1.232,0,1.938-0.593,1.921-1.568
				c0-1.009-0.688-1.521-1.937-1.521H9.967v-1.408l2.625-2.737H8.383v-2.049h7.202v1.505l-2.929,3.057L13.201,17.653z"/>
		</g>
		<g>
			<path fill="#FFFFFF" d="M18.977,10.741c0.215-0.432,0.6-0.659,1.104-0.659v0.659c-0.643-0.035-1.051,0.342-1.104,0.888v1.667
				h-0.689v-3.189h0.689V10.741z"/>
			<path fill="#FFFFFF" d="M23.689,13.296H23v-0.545c-0.227,0.371-0.611,0.575-1.121,0.575c-0.916,0-1.529-0.666-1.529-1.638
				c0-0.959,0.619-1.612,1.518-1.612c0.516,0,0.9,0.21,1.133,0.581V8.847h0.689V13.296z M23,11.713c0-0.617-0.4-1.05-0.977-1.05
				s-0.979,0.438-0.984,1.05c0.006,0.605,0.402,1.038,0.984,1.038C22.6,12.751,23,12.318,23,11.713z"/>
		</g>
	</g>
</g>
</svg>
