<?xml version="1.0" encoding="utf-8"?>
<!-- Generator: Adobe Illustrator 16.0.0, SVG Export Plug-In . SVG Version: 6.00 Build 0)  -->
<!DOCTYPE svg PUBLIC "-//W3C//DTD SVG 1.1//EN" "http://www.w3.org/Graphics/SVG/1.1/DTD/svg11.dtd">
<svg version="1.1" id="Layer_1" xmlns="http://www.w3.org/2000/svg" xmlns:xlink="http://www.w3.org/1999/xlink" x="0px" y="0px"
	 width="100px" height="100px" viewBox="0 0 100 100" enable-background="new 0 0 100 100" xml:space="preserve">
<g>
	<g>
		<path fill="#ED6D4F" d="M12.593,83.173C-5.732,62.514-3.833,30.911,16.825,12.591s52.258-16.427,70.582,4.235
			c18.324,20.659,16.426,52.266-4.232,70.585C62.517,105.73,30.917,103.832,12.593,83.173z"/>
	</g>
	<g>
		<g>
			<path fill="#FFFFFF" d="M62.979,43.914c0.498,0.395,0.53,1.185,0.143,1.681L42.432,71.616c-0.387,0.499-1.199,1.092-1.793,1.315
				l-13.174,5.028c-0.594,0.233-1.013-0.095-0.928-0.732l1.84-14.045c0.08-0.631,0.478-1.549,0.87-2.047l20.679-26.024
				c0.398-0.496,1.178-0.642,1.676-0.247L62.979,43.914L62.979,43.914z"/>
			<path fill="#FFFFFF" d="M60.029,22.4c0.397-0.499,1.119-0.583,1.623-0.186l11.382,9.048c0.499,0.396,0.583,1.122,0.186,1.623
				l-4.741,5.962c-0.393,0.499-1.125,0.583-1.623,0.186l-11.377-9.049c-0.498-0.397-0.589-1.122-0.19-1.62L60.029,22.4z"/>
		</g>
	</g>
</g>
</svg>
