<?xml version="1.0" encoding="utf-8"?>
<!-- Generator: Adobe Illustrator 16.0.0, SVG Export Plug-In . SVG Version: 6.00 Build 0)  -->
<!DOCTYPE svg PUBLIC "-//W3C//DTD SVG 1.1//EN" "http://www.w3.org/Graphics/SVG/1.1/DTD/svg11.dtd">
<svg version="1.1" id="Layer_1" xmlns="http://www.w3.org/2000/svg" xmlns:xlink="http://www.w3.org/1999/xlink" x="0px" y="0px"
	 width="52.328px" height="49.287px" viewBox="0 0 52.328 49.287" enable-background="new 0 0 52.328 49.287" xml:space="preserve">
<g>
	<polygon fill="#3C3A40" points="52.328,4.051 48.279,4.051 48.279,0 45.58,0 45.58,4.051 41.531,4.051 41.531,6.749 45.58,6.749 
		45.58,10.798 48.279,10.798 48.279,6.749 52.328,6.749 	"/>
	<g>
		<path fill="#FFFFFF" d="M52.093,14.75c-0.256-0.367-0.671-0.588-1.116-0.588H16.899c-0.744,0-1.349,0.604-1.349,1.351
			c0,0.745,0.604,1.349,1.349,1.349h32.107l-5.56,14.389H16.641L7.121,9.393C6.906,8.9,6.421,8.582,5.883,8.582H1.349
			C0.605,8.582,0,9.188,0,9.931c0,0.744,0.605,1.351,1.349,1.351H5l7.539,17.313c0.007,0.026,0.007,0.043,0.013,0.066l4.175,9.663
			c0.213,0.494,0.697,0.815,1.239,0.815h24.1c0.743,0,1.349-0.604,1.349-1.351c0-0.747-0.605-1.35-1.349-1.35H18.853l-1.075-2.486
			h26.59c0.558,0,1.06-0.344,1.262-0.866l6.606-17.085C52.398,15.585,52.338,15.116,52.093,14.75z"/>
		<path fill="#FFFFFF" d="M20.689,40.734c-2.358,0-4.277,1.919-4.277,4.276c0,2.358,1.919,4.277,4.277,4.277
			c2.361,0,4.278-1.919,4.278-4.277C24.968,42.653,23.051,40.734,20.689,40.734z M20.689,46.587c-0.871,0-1.578-0.706-1.578-1.577
			c0-0.87,0.707-1.578,1.578-1.578c0.87,0,1.577,0.708,1.577,1.578C22.267,45.881,21.56,46.587,20.689,46.587z"/>
		<path fill="#FFFFFF" d="M39.322,40.734c-2.361,0-4.278,1.919-4.278,4.276c0,2.358,1.917,4.277,4.278,4.277
			c2.358,0,4.277-1.919,4.277-4.277C43.6,42.653,41.681,40.734,39.322,40.734z M39.322,46.587c-0.874,0-1.577-0.706-1.577-1.577
			c0-0.87,0.703-1.578,1.577-1.578c0.87,0,1.577,0.708,1.577,1.578C40.899,45.881,40.192,46.587,39.322,46.587z"/>
	</g>
</g>
</svg>
