<?xml version="1.0" encoding="utf-8"?>
<!-- Generator: Adobe Illustrator 16.0.0, SVG Export Plug-In . SVG Version: 6.00 Build 0)  -->
<!DOCTYPE svg PUBLIC "-//W3C//DTD SVG 1.1//EN" "http://www.w3.org/Graphics/SVG/1.1/DTD/svg11.dtd">
<svg version="1.1" id="Layer_1" xmlns="http://www.w3.org/2000/svg" xmlns:xlink="http://www.w3.org/1999/xlink" x="0px" y="0px"
	 width="100px" height="100px" viewBox="-16 -26 100 100" enable-background="new -16 -26 100 100" xml:space="preserve">
<g>
	<g>
		<rect x="-7.25" y="-4.751" fill="#FFFFFF" width="82.5" height="57.499"/>
		<path fill="#3C3A40" d="M75.25,54h-1.749c-0.689,0-1.254-0.557-1.254-1.253c0-0.689,0.564-1.244,1.254-1.244h1.749
			c0.688,0,1.253,0.555,1.253,1.244C76.503,53.443,75.938,54,75.25,54z M68.25,54h-1.753c-0.689,0-1.244-0.557-1.244-1.253
			c0-0.689,0.555-1.244,1.244-1.244h1.753c0.694,0,1.249,0.555,1.249,1.244C69.499,53.443,68.944,54,68.25,54z M61.25,54h-1.747
			c-0.689,0-1.254-0.557-1.254-1.253c0-0.689,0.564-1.244,1.254-1.244h1.747c0.69,0,1.254,0.555,1.254,1.244
			C62.504,53.443,61.94,54,61.25,54z M54.246,54h-1.749c-0.688,0-1.243-0.557-1.243-1.253c0-0.689,0.555-1.244,1.243-1.244h1.749
			c0.699,0,1.254,0.555,1.254,1.244C55.5,53.443,54.945,54,54.246,54z M47.251,54h-1.748c-0.69,0-1.253-0.557-1.253-1.253
			c0-0.689,0.563-1.244,1.253-1.244h1.748c0.688,0,1.253,0.555,1.253,1.244C48.504,53.443,47.939,54,47.251,54z M40.247,54h-1.75
			c-0.688,0-1.243-0.557-1.243-1.253c0-0.689,0.555-1.244,1.243-1.244h1.75c0.698,0,1.253,0.555,1.253,1.244
			C41.5,53.443,40.945,54,40.247,54z M33.252,54h-1.753c-0.688,0-1.249-0.557-1.249-1.253c0-0.689,0.561-1.244,1.249-1.244h1.753
			c0.688,0,1.248,0.555,1.248,1.244C34.5,53.443,33.94,54,33.252,54z M26.252,54h-1.753c-0.688,0-1.249-0.557-1.249-1.253
			c0-0.689,0.561-1.244,1.249-1.244h1.753c0.688,0,1.249,0.555,1.249,1.244C27.5,53.443,26.94,54,26.252,54z M19.251,54h-1.752
			c-0.688,0-1.248-0.557-1.248-1.253c0-0.689,0.561-1.244,1.248-1.244h1.752c0.689,0,1.25,0.555,1.25,1.244
			C20.501,53.443,19.94,54,19.251,54z M12.249,54H10.5c-0.688,0-1.248-0.557-1.248-1.253c0-0.689,0.56-1.244,1.248-1.244h1.75
			c0.691,0,1.252,0.555,1.252,1.244C13.501,53.443,12.94,54,12.249,54z M5.249,54H3.5c-0.688,0-1.249-0.557-1.249-1.253
			c0-0.689,0.56-1.244,1.249-1.244h1.749c0.692,0,1.253,0.555,1.253,1.244C6.501,53.443,5.941,54,5.249,54z M-1.751,54H-3.5
			c-0.688,0-1.249-0.557-1.249-1.253c0-0.689,0.561-1.244,1.249-1.244h1.749c0.693,0,1.253,0.555,1.253,1.244
			C-0.498,53.443-1.059,54-1.751,54z M-7.25,52.504c-0.688,0-1.249-0.563-1.249-1.254v-1.747c0-0.689,0.561-1.254,1.249-1.254
			c0.69,0,1.249,0.564,1.249,1.254v1.747C-6.001,51.94-6.56,52.504-7.25,52.504z M75.25,48.754c-0.688,0-1.253-0.563-1.253-1.254
			v-1.747c0-0.689,0.564-1.254,1.253-1.254s1.253,0.564,1.253,1.254V47.5C76.503,48.19,75.938,48.754,75.25,48.754z M-7.25,45.5
			c-0.688,0-1.249-0.555-1.249-1.254v-1.749c0-0.688,0.561-1.243,1.249-1.243c0.69,0,1.249,0.555,1.249,1.243v1.749
			C-6.001,44.945-6.56,45.5-7.25,45.5z M75.25,41.75c-0.688,0-1.253-0.555-1.253-1.254v-1.749c0-0.688,0.564-1.243,1.253-1.243
			s1.253,0.555,1.253,1.243v1.749C76.503,41.195,75.938,41.75,75.25,41.75z M-7.25,38.502c-0.688,0-1.249-0.563-1.249-1.251v-1.748
			c0-0.692,0.561-1.253,1.249-1.253c0.69,0,1.249,0.561,1.249,1.253v1.748C-6.001,37.939-6.56,38.502-7.25,38.502z M75.25,34.752
			c-0.688,0-1.253-0.563-1.253-1.251v-1.748c0-0.692,0.564-1.253,1.253-1.253s1.253,0.561,1.253,1.253v1.748
			C76.503,34.189,75.938,34.752,75.25,34.752z M-7.25,31.5c-0.688,0-1.249-0.557-1.249-1.253v-1.75c0-0.688,0.561-1.245,1.249-1.245
			c0.69,0,1.249,0.557,1.249,1.245v1.75C-6.001,30.943-6.56,31.5-7.25,31.5z M75.25,27.75c-0.688,0-1.253-0.557-1.253-1.253v-1.75
			c0-0.688,0.564-1.247,1.253-1.247s1.253,0.559,1.253,1.247v1.75C76.503,27.193,75.938,27.75,75.25,27.75z M-7.25,24.498
			c-0.688,0-1.249-0.558-1.249-1.249v-1.753c0-0.688,0.561-1.249,1.249-1.249c0.69,0,1.249,0.56,1.249,1.249v1.753
			C-6.001,23.94-6.56,24.498-7.25,24.498z M75.25,20.75c-0.688,0-1.253-0.56-1.253-1.248v-1.753c0-0.688,0.564-1.249,1.253-1.249
			s1.253,0.561,1.253,1.249v1.753C76.503,20.19,75.938,20.75,75.25,20.75z M-7.25,17.5c-0.688,0-1.249-0.561-1.249-1.25v-1.752
			c0-0.688,0.561-1.249,1.249-1.249c0.69,0,1.249,0.561,1.249,1.249v1.752C-6.001,16.94-6.56,17.5-7.25,17.5z M75.25,13.75
			c-0.688,0-1.253-0.561-1.253-1.25v-1.752c0-0.688,0.564-1.249,1.253-1.249s1.253,0.561,1.253,1.249v1.752
			C76.503,13.19,75.938,13.75,75.25,13.75z M-7.25,10.501c-0.688,0-1.249-0.561-1.249-1.252v-1.75c0-0.688,0.561-1.248,1.249-1.248
			c0.69,0,1.249,0.561,1.249,1.248v1.75C-6.001,9.94-6.56,10.501-7.25,10.501z M75.25,6.751c-0.688,0-1.253-0.561-1.253-1.252v-1.75
			c0-0.688,0.564-1.248,1.253-1.248s1.253,0.561,1.253,1.248v1.75C76.503,6.19,75.938,6.751,75.25,6.751z M-7.25,3.501
			c-0.688,0-1.249-0.561-1.249-1.253V0.5c0-0.688,0.561-1.248,1.249-1.248c0.69,0,1.249,0.56,1.249,1.248v1.749
			C-6.001,2.94-6.56,3.501-7.25,3.501z M75.25-0.249c-0.688,0-1.253-0.561-1.253-1.253V-3.25c0-0.688,0.564-1.248,1.253-1.248
			s1.253,0.56,1.253,1.248v1.749C76.503-0.81,75.938-0.249,75.25-0.249z M71.5-3.499h-1.749c-0.689,0-1.254-0.561-1.254-1.253
			C68.497-5.439,69.062-6,69.751-6H71.5c0.688,0,1.253,0.561,1.253,1.249C72.753-4.059,72.188-3.499,71.5-3.499z M64.5-3.499h-1.753
			c-0.689,0-1.244-0.561-1.244-1.253C61.503-5.439,62.058-6,62.747-6H64.5c0.694,0,1.249,0.561,1.249,1.249
			C65.749-4.059,65.194-3.499,64.5-3.499z M57.5-3.499h-1.747c-0.689,0-1.254-0.561-1.254-1.253C54.499-5.439,55.063-6,55.753-6
			H57.5c0.69,0,1.254,0.561,1.254,1.249C58.754-4.059,58.19-3.499,57.5-3.499z M50.496-3.499h-1.749
			c-0.688,0-1.243-0.561-1.243-1.253C47.504-5.439,48.059-6,48.747-6h1.749c0.699,0,1.254,0.561,1.254,1.249
			C51.75-4.059,51.195-3.499,50.496-3.499z M43.501-3.499h-1.748c-0.69,0-1.253-0.561-1.253-1.253C40.5-5.439,41.063-6,41.753-6
			h1.748c0.688,0,1.253,0.561,1.253,1.249C44.754-4.059,44.189-3.499,43.501-3.499z M36.497-3.499h-1.75
			c-0.688,0-1.247-0.561-1.247-1.253C33.5-5.439,34.059-6,34.747-6h1.75c0.698,0,1.253,0.561,1.253,1.249
			C37.75-4.059,37.195-3.499,36.497-3.499z M29.502-3.499h-1.753c-0.688,0-1.249-0.561-1.249-1.253C26.5-5.439,27.061-6,27.749-6
			h1.753c0.688,0,1.248,0.561,1.248,1.249C30.75-4.059,30.19-3.499,29.502-3.499z M22.502-3.499h-1.753
			c-0.688,0-1.249-0.561-1.249-1.253C19.5-5.439,20.061-6,20.749-6h1.753c0.688,0,1.249,0.561,1.249,1.249
			C23.75-4.059,23.19-3.499,22.502-3.499z M15.501-3.499h-1.752c-0.688,0-1.248-0.561-1.248-1.253C12.5-5.439,13.061-6,13.749-6
			h1.752c0.689,0,1.25,0.561,1.25,1.249C16.751-4.059,16.19-3.499,15.501-3.499z M8.499-3.499H6.75
			c-0.688,0-1.248-0.561-1.248-1.253C5.501-5.439,6.062-6,6.75-6h1.75C9.19-6,9.751-5.439,9.751-4.751
			C9.751-4.059,9.19-3.499,8.499-3.499z M1.499-3.499H-0.25c-0.688,0-1.249-0.561-1.249-1.253C-1.499-5.439-0.938-6-0.25-6h1.749
			c0.692,0,1.253,0.561,1.253,1.249C2.751-4.059,2.191-3.499,1.499-3.499z M-5.501-3.499H-7.25c-0.688,0-1.249-0.561-1.249-1.253
			C-8.499-5.439-7.938-6-7.25-6h1.749c0.693,0,1.253,0.561,1.253,1.249C-4.248-4.059-4.809-3.499-5.501-3.499z"/>
	</g>
	<g>
		<g>
			<g>
				<path fill="#ED6D4F" d="M11.227,29.962c-0.296-0.18-0.541-0.402-0.729-0.683c-0.184-0.28-0.323-0.602-0.404-0.971
					c-0.084-0.355-0.129-0.728-0.129-1.104c0-0.935,0.25-1.854,0.745-2.774c0.495-0.912,1.11-1.777,1.849-2.585
					c0.738-0.816,1.531-1.564,2.381-2.255c0.849-0.693,1.639-1.27,2.365-1.739c0.017-0.261,0.027-0.519,0.027-0.781
					c0-0.283,0-0.554,0-0.815c0-1.438-0.027-2.881-0.083-4.341c-0.224,0.394-0.604,0.911-1.132,1.555
					c-0.533,0.643-1.117,1.279-1.752,1.902c-0.634,0.628-1.272,1.172-1.917,1.629c-0.643,0.452-1.2,0.685-1.664,0.685
					c-0.321,0-0.578-0.073-0.772-0.21c-0.193-0.141-0.349-0.317-0.46-0.533c-0.114-0.216-0.188-0.458-0.228-0.727
					c-0.033-0.272-0.056-0.527-0.056-0.773c0-0.838,0.1-1.685,0.294-2.548c0.197-0.856,0.426-1.686,0.688-2.49
					c0.056-0.187,0.104-0.367,0.153-0.543c0.046-0.18,0.117-0.351,0.208-0.521c0.114-0.227,0.254-0.413,0.421-0.561
					c0.166-0.146,0.383-0.225,0.644-0.225c0.317,0,0.601,0.111,0.838,0.337c0.244,0.223,0.367,0.495,0.367,0.814
					c0,0.242-0.076,0.524-0.224,0.854c-0.148,0.328-0.272,0.597-0.366,0.828c-0.093,0.238-0.211,0.557-0.35,0.951
					c-0.137,0.393-0.271,0.803-0.393,1.23c-0.121,0.427-0.222,0.839-0.305,1.23c-0.083,0.394-0.127,0.72-0.127,0.983
					c0,0.092,0.012,0.212,0.027,0.361c0.021,0.149,0.104,0.226,0.254,0.226c0.111,0,0.261-0.065,0.444-0.198
					c0.188-0.127,0.379-0.276,0.578-0.446c0.193-0.168,0.383-0.336,0.56-0.502c0.177-0.17,0.3-0.289,0.378-0.366
					c0.766-0.783,1.469-1.608,2.113-2.476c0.646-0.87,1.3-1.732,1.971-2.589c0.132-0.151,0.279-0.316,0.435-0.506
					c0.161-0.183,0.35-0.277,0.577-0.277c0.183,0,0.372,0.065,0.56,0.194c0.112,0.076,0.2,0.261,0.267,0.559
					c0.061,0.298,0.112,0.618,0.139,0.953c0.026,0.337,0.039,0.661,0.039,0.981c0,0.316,0,0.547,0,0.697
					c0,1.233-0.023,2.511-0.067,3.827c-0.051,1.316-0.168,2.62-0.366,3.921c-0.195,1.296-0.486,2.558-0.866,3.791
					c-0.384,1.232-0.922,2.384-1.61,3.44c-0.228,0.354-0.491,0.705-0.8,1.053c-0.306,0.348-0.639,0.648-0.993,0.914
					c-0.355,0.258-0.739,0.478-1.149,0.648c-0.412,0.165-0.838,0.25-1.288,0.25C11.892,30.233,11.526,30.14,11.227,29.962z
					 M15.233,20.683c-0.695,0.598-1.338,1.247-1.932,1.948c-0.601,0.701-1.1,1.442-1.498,2.223
					c-0.403,0.787-0.605,1.589-0.605,2.408c0,0.168,0.018,0.359,0.045,0.576c0.027,0.218,0.083,0.41,0.168,0.586
					c0.081,0.18,0.194,0.334,0.338,0.451c0.139,0.124,0.323,0.184,0.544,0.184c0.222,0,0.443-0.056,0.66-0.166
					c0.212-0.117,0.417-0.255,0.615-0.422c0.195-0.171,0.378-0.35,0.546-0.552c0.168-0.194,0.316-0.374,0.449-0.548
					c0.373-0.48,0.703-1.073,0.995-1.774c0.287-0.699,0.538-1.436,0.754-2.197c0.215-0.764,0.394-1.527,0.546-2.284
					c0.149-0.755,0.254-1.438,0.31-2.054C16.564,19.546,15.921,20.087,15.233,20.683z"/>
			</g>
			<g>
				<path fill="#ED6D4F" d="M22.832,13.094c0.233-0.856,0.577-1.658,1.021-2.408c0.449-0.745,0.995-1.377,1.639-1.891
					c0.645-0.513,1.385-0.77,2.227-0.77c0.524,0,0.952,0.123,1.289,0.366c0.335,0.243,0.601,0.55,0.796,0.922
					c0.199,0.375,0.339,0.785,0.423,1.23c0.082,0.451,0.128,0.89,0.128,1.316c0,0.621-0.058,1.238-0.173,1.865
					c-0.111,0.622-0.29,1.227-0.529,1.802c-0.242,0.58-0.553,1.124-0.925,1.628c-0.373,0.502-0.833,0.932-1.372,1.286
					c-0.316,0.205-0.662,0.381-1.038,0.516c-0.373,0.141-0.754,0.211-1.147,0.211c-0.5,0-0.928-0.114-1.273-0.345
					c-0.342-0.235-0.621-0.53-0.826-0.885c-0.205-0.351-0.355-0.755-0.449-1.204c-0.089-0.448-0.139-0.876-0.139-1.289
					C22.482,14.738,22.598,13.953,22.832,13.094z M26.334,10.519c-0.403,0.429-0.739,0.944-1.011,1.542
					c-0.271,0.593-0.477,1.211-0.617,1.846c-0.137,0.638-0.211,1.171-0.211,1.595c0,0.223,0.023,0.472,0.058,0.744
					c0.037,0.269,0.108,0.516,0.21,0.74c0.105,0.228,0.249,0.419,0.435,0.577c0.187,0.156,0.42,0.236,0.703,0.236
					c0.238,0,0.469-0.052,0.685-0.155c0.216-0.104,0.416-0.227,0.602-0.375c0.354-0.285,0.655-0.61,0.911-0.994
					c0.25-0.384,0.456-0.788,0.615-1.222c0.157-0.428,0.275-0.873,0.352-1.327c0.073-0.458,0.111-0.903,0.111-1.332
					c0-0.223-0.022-0.484-0.056-0.782c-0.04-0.295-0.114-0.576-0.228-0.825c-0.111-0.25-0.261-0.469-0.443-0.646
					c-0.188-0.176-0.434-0.267-0.732-0.267C27.195,9.875,26.734,10.091,26.334,10.519z"/>
			</g>
			<g>
				<path fill="#ED6D4F" d="M32.802,12.412c0.122-0.888,0.311-1.732,0.572-2.536c0.149-0.429,0.398-0.765,0.744-1.008
					c0.345-0.241,0.734-0.364,1.16-0.364c0.437,0,0.646,0.205,0.646,0.615c0,0.154-0.021,0.306-0.074,0.462
					c-0.045,0.161-0.082,0.312-0.119,0.46c-0.154,0.469-0.305,0.984-0.469,1.54c-0.157,0.563-0.293,1.134-0.411,1.723
					c-0.125,0.589-0.233,1.172-0.312,1.749c-0.083,0.582-0.127,1.111-0.127,1.599c0,0.185,0.023,0.419,0.072,0.698
					c0.044,0.279,0.194,0.422,0.46,0.422c0.318,0,0.67-0.144,1.052-0.437c0.38-0.289,0.774-0.661,1.175-1.117
					c0.398-0.456,0.795-0.963,1.191-1.527c0.388-0.563,0.754-1.116,1.091-1.667c0.333-0.552,0.632-1.06,0.898-1.526
					c0.255-0.466,0.443-0.842,0.555-1.12c0.077-0.17,0.154-0.36,0.224-0.574c0.078-0.217,0.168-0.41,0.285-0.587
					c0.114-0.179,0.242-0.328,0.407-0.45c0.154-0.121,0.354-0.184,0.594-0.184c0.171,0,0.315,0.032,0.438,0.084
					c0.123,0.056,0.185,0.189,0.185,0.395c0,0.187-0.037,0.364-0.101,0.543c-0.062,0.179-0.124,0.349-0.179,0.521
					c-0.154,0.413-0.29,0.879-0.438,1.397c-0.144,0.524-0.263,1.059-0.365,1.594c-0.102,0.545-0.183,1.084-0.24,1.629
					c-0.055,0.54-0.076,1.025-0.076,1.453c0,0.133,0.009,0.311,0.021,0.534c0.021,0.224,0.055,0.443,0.114,0.658
					c0.054,0.214,0.141,0.402,0.252,0.56c0.114,0.158,0.266,0.234,0.443,0.234c0.288,0,0.643-0.188,1.065-0.572
					c0.437-0.385,0.866-0.832,1.288-1.342c0.433-0.512,0.827-1.019,1.19-1.526c0.368-0.506,0.619-0.879,0.773-1.121
					c0.088-0.129,0.217-0.302,0.374-0.516c0.166-0.217,0.326-0.323,0.493-0.323c0.17,0,0.275,0.05,0.321,0.155
					c0.053,0.1,0.071,0.229,0.071,0.378c0,0.091-0.019,0.188-0.071,0.292c-0.046,0.1-0.087,0.202-0.121,0.292
					c-0.23,0.445-0.566,0.985-1.012,1.611c-0.449,0.622-0.955,1.227-1.513,1.805c-0.562,0.578-1.142,1.071-1.74,1.481
					c-0.595,0.41-1.168,0.617-1.708,0.617c-0.426,0-0.762-0.148-1.003-0.442c-0.244-0.298-0.434-0.655-0.563-1.067
					c-0.131-0.41-0.205-0.844-0.24-1.305c-0.021-0.456-0.037-0.833-0.037-1.132c0-0.186,0-0.362,0-0.533
					c0-0.167,0.024-0.345,0.056-0.532c-0.279,0.392-0.617,0.85-1.022,1.375c-0.402,0.522-0.842,1.016-1.328,1.483
					c-0.488,0.466-0.993,0.862-1.526,1.19c-0.533,0.326-1.063,0.492-1.585,0.492c-0.499,0-0.888-0.146-1.16-0.421
					c-0.273-0.281-0.466-0.624-0.588-1.022c-0.124-0.401-0.194-0.831-0.224-1.286c-0.027-0.456-0.043-0.866-0.043-1.222
					C32.62,14.161,32.678,13.294,32.802,12.412z"/>
			</g>
			<g>
				<path fill="#ED6D4F" d="M50.271,11.582c-0.343-0.281-0.719-0.486-1.129-0.614c-0.151,0.409-0.315,0.838-0.494,1.288
					c-0.177,0.45-0.379,0.894-0.604,1.342c-0.223,0.45-0.464,0.878-0.72,1.291c-0.266,0.407-0.555,0.773-0.872,1.092
					c-0.093,0.091-0.206,0.182-0.339,0.277c-0.13,0.093-0.267,0.14-0.423,0.14c-0.234,0-0.357-0.121-0.357-0.363
					c0-0.112,0.021-0.222,0.066-0.322c0.054-0.105,0.115-0.2,0.184-0.293c0.546-0.783,1.05-1.588,1.526-2.408
					c0.479-0.819,0.773-1.71,0.882-2.66c-0.256-0.337-0.441-0.706-0.553-1.105c-0.111-0.406-0.169-0.817-0.169-1.247
					c0-0.224,0.03-0.51,0.095-0.867c0.068-0.354,0.169-0.698,0.31-1.037c0.134-0.334,0.31-0.624,0.52-0.867
					c0.2-0.242,0.441-0.366,0.722-0.366c0.21,0,0.365,0.087,0.477,0.267c0.112,0.179,0.211,0.384,0.283,0.615
					c0.071,0.235,0.119,0.472,0.139,0.716c0.023,0.241,0.03,0.44,0.03,0.59c0,0.442-0.03,0.891-0.086,1.342
					C49.981,8.727,50.28,9,50.658,9.219c0.367,0.209,0.74,0.443,1.105,0.698c0.366,0.252,0.672,0.562,0.938,0.923
					c0.256,0.366,0.389,0.856,0.389,1.47c0,0.32-0.044,0.683-0.134,1.093c-0.154,0.65-0.287,1.304-0.399,1.959
					c-0.109,0.653-0.165,1.316-0.165,1.987c0,0.189,0.026,0.407,0.071,0.658c0.044,0.252,0.201,0.381,0.46,0.381
					c0.324,0,0.684-0.161,1.107-0.478c0.419-0.319,0.838-0.694,1.248-1.121c0.41-0.427,0.79-0.862,1.144-1.302
					s0.62-0.791,0.787-1.054c0.089-0.127,0.201-0.273,0.32-0.435c0.121-0.153,0.271-0.236,0.438-0.236s0.272,0.062,0.321,0.184
					s0.068,0.255,0.068,0.404c0,0.112-0.02,0.217-0.068,0.31c-0.049,0.094-0.099,0.185-0.154,0.279
					c-0.225,0.354-0.549,0.806-0.993,1.345c-0.436,0.542-0.912,1.064-1.431,1.567c-0.515,0.503-1.049,0.929-1.592,1.288
					c-0.552,0.354-1.049,0.534-1.501,0.534c-0.466,0-0.831-0.143-1.087-0.427c-0.269-0.279-0.458-0.624-0.592-1.02
					c-0.132-0.396-0.209-0.822-0.237-1.271c-0.03-0.446-0.039-0.842-0.039-1.175c0-0.524,0.019-1.034,0.067-1.54
					c0.05-0.503,0.068-1.015,0.068-1.536C50.789,12.237,50.615,11.861,50.271,11.582z"/>
			</g>
		</g>
		<g>
			<g>
				<path fill="#3C3A40" d="M25.146,29.674v10.678h-1.649V29.674h-3.549v-1.495h8.744v1.495H25.146z"/>
			</g>
			<g>
				<path fill="#3C3A40" d="M30.347,40.352V28.179h7.426v1.495h-5.777v3.564h4.592v1.497h-4.592v4.118h5.931v1.498H30.347z"/>
			</g>
			<g>
				<path fill="#3C3A40" d="M47.175,40.352l-3.513-4.97l-3.184,4.97h-1.739l4.086-6.068l-4.086-6.105h1.913l3.13,4.751l3.374-4.751
					h1.741l-4.351,5.892l4.367,6.281L47.175,40.352L47.175,40.352z"/>
			</g>
			<g>
				<path fill="#3C3A40" d="M54.464,29.674v10.678H52.81V29.674h-3.544v-1.495h8.74v1.495H54.464z"/>
			</g>
		</g>
	</g>
</g>
</svg>
