<?xml version="1.0" encoding="utf-8"?>
<!-- Generator: Adobe Illustrator 16.0.0, SVG Export Plug-In . SVG Version: 6.00 Build 0)  -->
<!DOCTYPE svg PUBLIC "-//W3C//DTD SVG 1.1//EN" "http://www.w3.org/Graphics/SVG/1.1/DTD/svg11.dtd">
<svg version="1.1" id="Layer_1" xmlns="http://www.w3.org/2000/svg" xmlns:xlink="http://www.w3.org/1999/xlink" x="0px" y="0px"
	 width="50px" height="50px" viewBox="0 0 50 50" enable-background="new 0 0 50 50" xml:space="preserve">
<g>
	<path fill="#FCFCFC" d="M5.5,43h39V7h-39V43z M11.5,15h27v2h-27V15z M35.5,20v2h-21v-2H35.5z M11.5,26h27v2h-27V26z M35.5,31v2h-21
		v-2H35.5z M11.5,36h27v2h-27V36z"/>
	<path fill="#E8E8E8" d="M2.5,4v42h45V4H2.5z M44.5,43h-39V7h39V43z"/>
	<rect x="11.5" y="15" fill="#3C3A40" width="27" height="2"/>
	<rect x="11.5" y="36" fill="#3C3A40" width="27" height="2"/>
	<rect x="11.5" y="26" fill="#3C3A40" width="27" height="2"/>
	<rect x="14.5" y="20" fill="#3C3A40" width="21" height="2"/>
	<rect x="14.5" y="31" fill="#3C3A40" width="21" height="2"/>
</g>
</svg>
