<?xml version="1.0" encoding="utf-8"?>
<!-- Generator: Adobe Illustrator 16.0.0, SVG Export Plug-In . SVG Version: 6.00 Build 0)  -->
<!DOCTYPE svg PUBLIC "-//W3C//DTD SVG 1.1//EN" "http://www.w3.org/Graphics/SVG/1.1/DTD/svg11.dtd">
<svg version="1.1" id="Layer_1" xmlns="http://www.w3.org/2000/svg" xmlns:xlink="http://www.w3.org/1999/xlink" x="0px" y="0px"
	 width="100px" height="100px" viewBox="0 0 100 100" enable-background="new 0 0 100 100" xml:space="preserve">
<g>
	<circle fill="#FFFFFF" cx="38.354" cy="19.937" r="1.034"/>
	<path fill="#FFFFFF" d="M62,13.5H38c-3.038,0-5.5,2.462-5.5,5.5v16.159l35-14.165V19C67.5,15.962,65.037,13.5,62,13.5z
		 M38.354,23.971c-2.225,0-4.034-1.81-4.034-4.034s1.81-4.034,4.034-4.034s4.034,1.81,4.034,4.034S40.579,23.971,38.354,23.971z
		 M45.223,21.589c-0.77,0-1.395-0.625-1.395-1.396c0-0.771,0.625-1.396,1.395-1.396c0.771,0,1.396,0.625,1.396,1.396
		C46.619,20.964,45.994,21.589,45.223,21.589z"/>
	<polygon fill="#EFEFEF" points="32.5,57.813 67.5,43.649 67.5,20.995 32.5,35.159 	"/>
	<polygon fill="#ED6D4F" points="32.5,80.433 67.5,66.268 67.5,43.649 32.5,57.813 	"/>
	<path fill="#3C3A40" d="M62,10.5H38c-4.694,0-8.5,3.806-8.5,8.5v63c0,4.694,3.806,8.5,8.5,8.5h24c4.694,0,8.5-3.806,8.5-8.5V19
		C70.5,14.306,66.694,10.5,62,10.5z M67.5,20.995v22.654v22.619l-35,14.165V57.813V35.159V19c0-3.038,2.462-5.5,5.5-5.5h24
		c3.037,0,5.5,2.462,5.5,5.5V20.995z"/>
	<path fill="#3C3A40" d="M38.354,15.902c-2.225,0-4.034,1.81-4.034,4.034s1.81,4.034,4.034,4.034s4.034-1.81,4.034-4.034
		S40.579,15.902,38.354,15.902z M38.354,20.971c-0.57,0-1.034-0.464-1.034-1.034s0.464-1.034,1.034-1.034s1.034,0.464,1.034,1.034
		S38.925,20.971,38.354,20.971z"/>
	<circle fill="#3C3A40" cx="45.223" cy="20.193" r="1.396"/>
</g>
</svg>
