<?xml version="1.0" encoding="utf-8"?>
<!-- Generator: Adobe Illustrator 16.0.0, SVG Export Plug-In . SVG Version: 6.00 Build 0)  -->
<!DOCTYPE svg PUBLIC "-//W3C//DTD SVG 1.1//EN" "http://www.w3.org/Graphics/SVG/1.1/DTD/svg11.dtd">
<svg version="1.1" id="Layer_1" xmlns="http://www.w3.org/2000/svg" xmlns:xlink="http://www.w3.org/1999/xlink" x="0px" y="0px"
	 width="50px" height="50px" viewBox="0 0 50 50" enable-background="new 0 0 50 50" xml:space="preserve">
<g>
	<g>
		<rect x="5" y="7" fill="#FCFCFC" width="39" height="36"/>
		<path fill="#E8E8E8" d="M2,4v42h45V4H2z M44,43H5V7h39V43z"/>
	</g>
	<g>
		<path fill="#3C3A40" d="M27.284,25.197c1.382,0.322,2.353,0.713,2.911,1.171c0.802,0.651,1.203,1.497,1.203,2.535
			c0,1.096-0.44,2.002-1.321,2.718c-1.081,0.866-2.653,1.3-4.716,1.3H17.96v-0.397c0.673,0,1.129-0.063,1.37-0.188
			c0.24-0.125,0.408-0.288,0.505-0.488s0.145-0.694,0.145-1.482v-9.453c0-0.788-0.048-1.283-0.145-1.488
			c-0.097-0.203-0.267-0.366-0.51-0.488c-0.244-0.122-0.698-0.183-1.364-0.183v-0.397h6.982c1.669,0,2.851,0.148,3.545,0.445
			c0.694,0.298,1.242,0.742,1.644,1.332c0.4,0.592,0.602,1.22,0.602,1.886c0,0.702-0.254,1.327-0.763,1.874
			C29.461,24.44,28.566,24.875,27.284,25.197z M23.374,25.745v4.673l-0.011,0.537c0,0.387,0.098,0.679,0.295,0.876
			c0.197,0.196,0.489,0.295,0.875,0.295c0.573,0,1.101-0.127,1.585-0.381c0.482-0.255,0.854-0.623,1.111-1.107
			c0.258-0.482,0.387-1.021,0.387-1.616c0-0.681-0.158-1.291-0.473-1.831c-0.315-0.541-0.748-0.919-1.3-1.134
			S24.47,25.738,23.374,25.745z M23.374,24.907c1.017,0,1.767-0.114,2.251-0.344c0.482-0.229,0.854-0.552,1.111-0.967
			s0.387-0.945,0.387-1.59s-0.127-1.173-0.381-1.584c-0.255-0.412-0.618-0.726-1.091-0.94s-1.232-0.318-2.277-0.312V24.907z"/>
	</g>
</g>
</svg>
