<?xml version="1.0" encoding="utf-8"?>
<!-- Generator: Adobe Illustrator 16.0.0, SVG Export Plug-In . SVG Version: 6.00 Build 0)  -->
<!DOCTYPE svg PUBLIC "-//W3C//DTD SVG 1.1//EN" "http://www.w3.org/Graphics/SVG/1.1/DTD/svg11.dtd">
<svg version="1.1" id="Layer_1" xmlns="http://www.w3.org/2000/svg" xmlns:xlink="http://www.w3.org/1999/xlink" x="0px" y="0px"
	 width="100px" height="100px" viewBox="0 0 100 100" enable-background="new 0 0 100 100" xml:space="preserve">
<g>
	<g>
		<g>
			<g>
				<path fill="#3C3A40" d="M69.659,70.611c0.227-0.212,0.479-0.414,0.753-0.604c0.274-0.191,0.575-0.359,0.901-0.506
					c0.327-0.146,0.678-0.262,1.056-0.347c0.378-0.084,0.786-0.126,1.227-0.126c0.579,0,1.116,0.084,1.611,0.252
					c0.494,0.17,0.922,0.407,1.281,0.715c0.358,0.309,0.641,0.683,0.847,1.122c0.205,0.44,0.308,0.936,0.308,1.485
					c0,0.557-0.083,1.037-0.247,1.439c-0.165,0.404-0.374,0.758-0.627,1.062c-0.253,0.305-0.527,0.568-0.825,0.792
					c-0.297,0.225-0.577,0.435-0.841,0.633c-0.265,0.197-0.489,0.396-0.677,0.594c-0.187,0.198-0.295,0.418-0.323,0.66l-0.198,1.682
					h-1.343l-0.132-1.825c-0.028-0.33,0.033-0.618,0.188-0.863s0.355-0.477,0.604-0.692c0.25-0.216,0.524-0.43,0.825-0.639
					c0.3-0.208,0.581-0.441,0.841-0.698s0.479-0.548,0.654-0.874c0.177-0.326,0.264-0.717,0.264-1.171
					c0-0.315-0.062-0.601-0.187-0.858c-0.124-0.256-0.293-0.474-0.506-0.654c-0.212-0.18-0.464-0.316-0.753-0.412
					c-0.29-0.096-0.6-0.143-0.93-0.143c-0.446,0-0.83,0.055-1.149,0.164c-0.318,0.111-0.588,0.231-0.808,0.363
					c-0.22,0.133-0.397,0.254-0.533,0.363c-0.136,0.11-0.248,0.164-0.336,0.164c-0.184,0-0.326-0.084-0.429-0.252L69.659,70.611z
					 M71.803,83.753c0-0.19,0.035-0.37,0.104-0.539c0.07-0.168,0.166-0.314,0.287-0.439c0.12-0.125,0.266-0.224,0.434-0.297
					c0.169-0.074,0.349-0.11,0.539-0.11s0.37,0.036,0.539,0.11c0.168,0.073,0.314,0.172,0.439,0.297s0.224,0.271,0.297,0.439
					c0.074,0.169,0.11,0.349,0.11,0.539c0,0.198-0.036,0.379-0.11,0.545c-0.073,0.164-0.172,0.309-0.297,0.434
					s-0.271,0.222-0.439,0.291c-0.169,0.07-0.349,0.105-0.539,0.105s-0.37-0.035-0.539-0.105c-0.168-0.069-0.313-0.166-0.434-0.291
					c-0.121-0.125-0.217-0.27-0.287-0.434C71.838,84.132,71.803,83.951,71.803,83.753z"/>
			</g>
		</g>
	</g>
	<g>
		<g>
			<g>
				<path fill-rule="evenodd" clip-rule="evenodd" fill="#3B3B3B" d="M31.459,14.874c0,0.729,0,1.46,0,2.188
					c0.017,0.012,0.024,0.001,0.034-0.005c0.245-0.161,0.521-0.242,0.809-0.277c0.415-0.051,0.832-0.034,1.249-0.036
					c0.382-0.003,0.763,0.001,1.145,0.002c0.45,0.002,0.882,0.088,1.286,0.29c0.652,0.327,1.048,0.857,1.214,1.563
					c0.052,0.221,0.06,0.446,0.059,0.673c0,1.102,0,2.204,0.001,3.307c0,0.049-0.01,0.065-0.063,0.065
					c-0.351-0.003-0.7-0.001-1.052-0.001c-0.103,0-0.103,0-0.103-0.102c0.001-1.121,0.009-2.243-0.002-3.363
					c-0.005-0.485-0.224-0.864-0.664-1.095c-0.152-0.08-0.318-0.113-0.489-0.12c-0.545-0.023-1.09-0.032-1.635-0.022
					c-0.233,0.005-0.468-0.001-0.7,0.029c-0.504,0.065-0.836,0.349-1.016,0.816c-0.05,0.128-0.069,0.263-0.073,0.4
					c-0.021,0.872-0.007,1.744-0.007,2.616c0,0.261,0.004,0.521,0.009,0.782c0.001,0.049-0.016,0.058-0.06,0.058
					c-0.362-0.001-0.725,0-1.086,0c-0.024,0-0.048,0.002-0.07,0.002c0-2.572,0-5.145-0.001-7.717c0-0.045,0.01-0.055,0.054-0.055
					C30.684,14.875,31.072,14.874,31.459,14.874z"/>
			</g>
		</g>
		<g>
			<g>
				<path fill-rule="evenodd" clip-rule="evenodd" fill="#3B3B3B" d="M51.229,22.642c-0.754,0-1.508,0.005-2.261-0.001
					c-0.685-0.006-1.274-0.249-1.749-0.746c-0.283-0.298-0.444-0.662-0.545-1.057c-0.105-0.409-0.116-0.827-0.108-1.246
					c0.007-0.374,0.027-0.746,0.131-1.109c0.188-0.655,0.559-1.162,1.177-1.472c0.292-0.147,0.604-0.229,0.93-0.244
					c0.586-0.029,1.172-0.013,1.759-0.013c0.994,0,1.99,0.002,2.984,0.002c0.051,0,0.069,0.01,0.069,0.065
					c-0.003,0.362-0.003,0.725-0.001,1.087c0.001,0.047-0.008,0.063-0.06,0.063c-0.899-0.002-1.799,0-2.698-0.006
					c-0.549-0.003-1.099-0.007-1.647-0.002c-0.18,0.001-0.362-0.004-0.535,0.064c-0.361,0.143-0.602,0.406-0.762,0.751
					c-0.083,0.178-0.114,0.367-0.128,0.56c-0.022,0.337-0.015,0.673,0.021,1.009c0.056,0.535,0.404,0.928,0.928,1.048
					c0.224,0.051,0.452,0.043,0.68,0.05c0.396,0.01,0.794,0.005,1.191,0.003c0.634-0.002,1.27-0.007,1.903-0.01
					c0.35-0.003,0.697-0.005,1.046-0.009c0.048-0.001,0.063,0.01,0.063,0.06c-0.003,0.364-0.003,0.729-0.001,1.093
					c0.001,0.048-0.012,0.061-0.061,0.061C52.778,22.641,52.004,22.642,51.229,22.642L51.229,22.642z"/>
			</g>
		</g>
		<g>
			<g>
				<path fill-rule="evenodd" clip-rule="evenodd" fill="#3B3B3B" d="M42.004,16.824c1.139,0,2.278,0.001,3.418-0.002
					c0.056,0,0.07,0.014,0.07,0.071c-0.003,0.358-0.003,0.717,0,1.075c0,0.051-0.014,0.064-0.065,0.064
					c-0.913-0.002-1.826-0.002-2.74-0.002c-0.078,0-0.078,0-0.078,0.079c0,1.479,0,2.956,0,4.435c0,0.074,0,0.074-0.075,0.074
					c-0.358,0-0.717-0.001-1.075,0.002c-0.056,0-0.065-0.018-0.065-0.068c0.001-1.482,0.001-2.965,0.001-4.446
					c0-0.075,0-0.075-0.075-0.075c-0.912,0-1.823,0-2.735,0.002c-0.051,0-0.068-0.011-0.068-0.066c0.003-0.36,0.003-0.721,0-1.081
					c0-0.054,0.017-0.063,0.065-0.063C39.722,16.824,40.862,16.824,42.004,16.824z"/>
			</g>
		</g>
	</g>
	<g>
		<path fill-rule="evenodd" clip-rule="evenodd" fill="#3B3B3B" d="M79.196,41.778c-0.111,0.319-0.231,0.631-0.373,0.934
			c-0.261,0.558-0.588,1.073-0.958,1.563c-0.212,0.28-0.428,0.557-0.682,0.799c-0.224,0.213-0.467,0.396-0.755,0.515
			c-0.327,0.134-0.664,0.165-1.011,0.103c-0.313-0.057-0.608-0.16-0.901-0.278c-0.31-0.124-0.628-0.215-0.959-0.253
			c-0.249-0.029-0.498-0.021-0.745,0.017c-0.366,0.054-0.711,0.176-1.053,0.311c-0.249,0.1-0.506,0.177-0.771,0.226
			c-0.396,0.073-0.766,0.001-1.111-0.2c-0.303-0.176-0.56-0.408-0.792-0.667c-0.927-1.037-1.607-2.215-2.012-3.548
			c-0.144-0.473-0.254-0.952-0.317-1.441c-0.06-0.461-0.08-0.923-0.048-1.387c0.046-0.674,0.197-1.319,0.512-1.922
			c0.28-0.538,0.651-1.001,1.143-1.362c0.492-0.362,1.037-0.6,1.643-0.691c0.206-0.031,0.412-0.05,0.621-0.039
			c0.242,0.013,0.479,0.058,0.71,0.13c0.294,0.093,0.583,0.2,0.876,0.295c0.227,0.074,0.455,0.141,0.684,0.209
			c0.126,0.038,0.25,0.019,0.371-0.021c0.339-0.112,0.677-0.223,1.013-0.341c0.336-0.117,0.676-0.22,1.027-0.274
			c0.272-0.043,0.545-0.05,0.818-0.019c0.326,0.036,0.646,0.098,0.957,0.202c0.53,0.177,0.997,0.454,1.382,0.861
			c0.115,0.121,0.215,0.257,0.321,0.386c0.004,0.005,0.007,0.011,0.01,0.017c-0.095,0.063-0.189,0.124-0.281,0.189
			c-0.414,0.295-0.762,0.652-1.008,1.102c-0.163,0.298-0.27,0.615-0.321,0.949c-0.082,0.533-0.056,1.062,0.101,1.579
			c0.157,0.517,0.441,0.955,0.827,1.33c0.312,0.304,0.662,0.549,1.063,0.72C79.182,41.77,79.188,41.772,79.196,41.778z
			 M75.754,30.025c-0.332,0.059-0.643,0.179-0.944,0.327c-1.123,0.55-1.771,1.691-1.854,2.618c-0.016,0.175-0.018,0.35,0.006,0.524
			c0.012,0.002,0.021,0.005,0.031,0.005c0.126-0.002,0.253,0.004,0.377-0.009c0.352-0.035,0.676-0.156,0.978-0.338
			c0.415-0.249,0.757-0.578,1.049-0.963c0.455-0.599,0.701-1.268,0.671-2.028c-0.002-0.057-0.007-0.112-0.012-0.177
			C75.951,29.999,75.852,30.009,75.754,30.025z"/>
	</g>
	<g>
		<g>
			<rect x="72" y="49" fill="#3C3A40" width="3" height="15"/>
			<path fill="#3C3A40" d="M70.5,21c0.827,0,1.5,0.383,1.5,1.21V27h3v-4.79c0-2.481-2.019-4.21-4.5-4.21H60v3H70.5z"/>
			<rect x="41" y="27" fill="#3C3A40" width="3" height="23"/>
			<path fill="#3C3A40" d="M45.5,81c-0.827,0-1.5-0.963-1.5-1.79V64h-3v15.21c0,2.481,2.019,4.79,4.5,4.79H63v-3H45.5z"/>
		</g>
		<g>
			<g>
				<g>
					<g>
						<g>
							<g>
								<g>
									<polygon fill="#3B3B3B" points="56.222,58.496 56.139,53.694 57.652,53.694 57.652,59.745 55.476,59.745 53.966,54.78 
										53.932,54.78 54.017,59.745 52.513,59.745 52.513,53.694 54.783,53.694 56.188,58.496 									"/>
								</g>
							</g>
							<g>
								<g>
									<polygon fill="#3B3B3B" points="28.706,54.262 27.868,59.81 26.218,59.81 27.352,53.694 30.071,53.694 31.2,59.81 
										29.556,59.81 28.74,54.262 									"/>
								</g>
							</g>
							<g>
								<g>
									<polygon fill="#3B3B3B" points="35.837,58.369 36.592,53.694 39.086,53.694 39.218,59.81 37.69,59.81 37.65,54.313 
										37.618,54.313 36.596,59.81 35.044,59.81 34.022,54.313 33.989,54.313 33.95,59.81 32.419,59.81 32.555,53.694 
										35.049,53.694 35.805,58.369 									"/>
								</g>
							</g>
							<g>
								<g>
									<path fill="#3B3B3B" d="M23.643,58.084c0.061,0.148,0.042,0.339,0.015,0.454c-0.052,0.203-0.189,0.41-0.596,0.41
										c-0.384,0-0.616-0.22-0.616-0.556v-0.591h-1.64l-0.002,0.473c0,1.363,1.074,1.774,2.225,1.774
										c1.104,0,2.016-0.378,2.16-1.396c0.074-0.528,0.019-0.874-0.006-1.005c-0.258-1.279-2.578-1.661-2.751-2.378
										c-0.029-0.122-0.021-0.252-0.007-0.322c0.042-0.194,0.176-0.409,0.559-0.409c0.357,0,0.568,0.221,0.568,0.555
										c0,0.112,0,0.377,0,0.377h1.524v-0.43c0-1.332-1.195-1.539-2.062-1.539c-1.087,0-1.976,0.359-2.138,1.354
										c-0.044,0.274-0.051,0.52,0.014,0.827C21.157,56.931,23.329,57.293,23.643,58.084z"/>
								</g>
							</g>
							<g>
								<g>
									<path fill="#3B3B3B" d="M43.525,58.073c0.061,0.146,0.04,0.332,0.013,0.447c-0.05,0.202-0.187,0.406-0.59,0.406
										c-0.378,0-0.608-0.22-0.608-0.548l-0.002-0.586h-1.623l-0.001,0.467c0,1.35,1.063,1.757,2.201,1.757
										c1.094,0,1.996-0.373,2.139-1.383c0.073-0.524,0.021-0.865-0.005-0.993c-0.257-1.269-2.554-1.646-2.726-2.355
										c-0.029-0.122-0.021-0.25-0.006-0.316c0.044-0.196,0.176-0.406,0.554-0.406c0.354,0,0.561,0.216,0.561,0.548
										c0,0.111,0,0.373,0,0.373h1.513v-0.425c0-1.317-1.186-1.524-2.043-1.524c-1.074,0-1.956,0.355-2.115,1.344
										c-0.045,0.27-0.049,0.511,0.014,0.816C41.063,56.931,43.214,57.29,43.525,58.073z"/>
								</g>
							</g>
							<g>
								<g>
									<path fill="#3B3B3B" d="M48.66,58.895c0.424,0,0.558-0.293,0.586-0.443c0.014-0.066,0.017-0.155,0.015-0.234v-4.524h1.546
										v4.386c0.003,0.112-0.007,0.344-0.013,0.401c-0.108,1.142-1.011,1.512-2.134,1.512c-1.124,0-2.027-0.37-2.135-1.512
										c-0.006-0.058-0.017-0.289-0.014-0.401v-4.386h1.545v4.524c0,0.079,0.003,0.168,0.015,0.234
										C48.104,58.602,48.232,58.895,48.66,58.895z"/>
								</g>
							</g>
							<g>
								<g>
									<path fill="#3B3B3B" d="M61.415,58.83c0.443,0,0.598-0.28,0.626-0.442c0.011-0.07,0.015-0.156,0.014-0.233v-0.887h-0.627
										v-0.893h2.168v1.64c-0.002,0.115-0.004,0.199-0.023,0.404c-0.102,1.111-1.065,1.508-2.149,1.508
										c-1.085,0-2.049-0.396-2.153-1.508c-0.017-0.205-0.019-0.289-0.021-0.404l0.001-2.574c0-0.107,0.013-0.301,0.025-0.402
										c0.136-1.143,1.063-1.511,2.147-1.511s2.034,0.366,2.146,1.511c0.021,0.195,0.014,0.402,0.014,0.402v0.204H62.04v-0.342
										c0.002,0.001-0.002-0.146-0.02-0.233c-0.025-0.135-0.144-0.445-0.609-0.445c-0.445,0-0.576,0.294-0.608,0.445
										c-0.02,0.081-0.026,0.189-0.026,0.289v2.796c-0.001,0.077,0.003,0.163,0.016,0.233
										C60.818,58.552,60.973,58.83,61.415,58.83z"/>
								</g>
							</g>
						</g>
					</g>
				</g>
			</g>
		</g>
	</g>
</g>
</svg>
