<?xml version="1.0" encoding="utf-8"?>
<!-- Generator: Adobe Illustrator 16.0.0, SVG Export Plug-In . SVG Version: 6.00 Build 0)  -->
<!DOCTYPE svg PUBLIC "-//W3C//DTD SVG 1.1//EN" "http://www.w3.org/Graphics/SVG/1.1/DTD/svg11.dtd">
<svg version="1.1" id="Layer_1" xmlns="http://www.w3.org/2000/svg" xmlns:xlink="http://www.w3.org/1999/xlink" x="0px" y="0px"
	 width="100px" height="100px" viewBox="0 0 100 100" enable-background="new 0 0 100 100" xml:space="preserve">
<g>
	<path fill="none" d="M72,18H47c-0.551,0-1,0.449-1,1v1h6.5c2.481,0,4.5,2.019,4.5,4.5V77h15c0.552,0,1-0.448,1-1V19
		C73,18.449,72.552,18,72,18z"/>
	<path fill="#3C3A40" d="M72,14H47c-2.757,0-5,2.243-5,5v1H27.5c-2.481,0-4.5,2.019-4.5,4.5v57c0,2.481,2.019,4.5,4.5,4.5h25
		c2.481,0,4.5-2.019,4.5-4.5V81h15c2.757,0,5-2.243,5-5V19C77,16.243,74.757,14,72,14z M52.5,83h-25c-0.827,0-1.5-0.673-1.5-1.5v-57
		c0-0.827,0.673-1.5,1.5-1.5h25c0.827,0,1.5,0.673,1.5,1.5v57C54,82.327,53.327,83,52.5,83z M73,76c0,0.552-0.448,1-1,1H57V24.5
		c0-2.481-2.019-4.5-4.5-4.5H46v-1c0-0.551,0.449-1,1-1h25c0.552,0,1,0.449,1,1V76z"/>
</g>
</svg>
