<?xml version="1.0" encoding="utf-8"?>
<!-- Generator: Adobe Illustrator 16.0.0, SVG Export Plug-In . SVG Version: 6.00 Build 0)  -->
<!DOCTYPE svg PUBLIC "-//W3C//DTD SVG 1.1//EN" "http://www.w3.org/Graphics/SVG/1.1/DTD/svg11.dtd">
<svg version="1.1" id="Layer_1" xmlns="http://www.w3.org/2000/svg" xmlns:xlink="http://www.w3.org/1999/xlink" x="0px" y="0px"
	 width="100px" height="100px" viewBox="0 0 100 100" enable-background="new 0 0 100 100" xml:space="preserve">
<g>
	<rect x="39" y="39" fill="none" width="22" height="22"/>
	<circle fill="none" cx="36.71" cy="16.932" r="1.231"/>
	<path fill="none" d="M63.5,10h-27c-3.033,0-5.5,2.467-5.5,5.5v69c0,3.032,2.467,5.5,5.5,5.5h27c3.032,0,5.5-2.468,5.5-5.5v-69
		C69,12.467,66.532,10,63.5,10z M44.114,15.705c0.83,0,1.504,0.673,1.504,1.504c0,0.831-0.674,1.504-1.504,1.504
		s-1.504-0.673-1.504-1.504C42.61,16.378,43.284,15.705,44.114,15.705z M32.479,16.932c0-2.333,1.898-4.232,4.231-4.232
		s4.231,1.898,4.231,4.232c0,2.333-1.898,4.231-4.231,4.231S32.479,19.265,32.479,16.932z M64,64H36V36h28V64z"/>
	<path fill="#3C3A40" d="M63.5,7h-27c-4.687,0-8.5,3.813-8.5,8.5v69c0,4.687,3.813,8.5,8.5,8.5h27c4.687,0,8.5-3.813,8.5-8.5v-69
		C72,10.813,68.187,7,63.5,7z M69,84.5c0,3.032-2.468,5.5-5.5,5.5h-27c-3.033,0-5.5-2.468-5.5-5.5v-69c0-3.033,2.467-5.5,5.5-5.5h27
		c3.032,0,5.5,2.467,5.5,5.5V84.5z"/>
	<path fill="#3C3A40" d="M40.942,16.932c0-2.333-1.898-4.232-4.231-4.232s-4.231,1.898-4.231,4.232c0,2.333,1.898,4.231,4.231,4.231
		S40.942,19.265,40.942,16.932z M35.479,16.932c0-0.679,0.552-1.232,1.231-1.232s1.231,0.553,1.231,1.232s-0.552,1.231-1.231,1.231
		S35.479,17.611,35.479,16.932z"/>
	<circle fill="#3C3A40" cx="44.114" cy="17.209" r="1.504"/>
	<path fill="#3C3A40" d="M36,64h28V36H36V64z M39,39h22v22H39V39z"/>
</g>
</svg>
