<?xml version="1.0" encoding="utf-8"?>
<!-- Generator: Adobe Illustrator 16.0.0, SVG Export Plug-In . SVG Version: 6.00 Build 0)  -->
<!DOCTYPE svg PUBLIC "-//W3C//DTD SVG 1.1//EN" "http://www.w3.org/Graphics/SVG/1.1/DTD/svg11.dtd">
<svg version="1.1" id="Layer_1" xmlns="http://www.w3.org/2000/svg" xmlns:xlink="http://www.w3.org/1999/xlink" x="0px" y="0px"
	 width="100px" height="100px" viewBox="0 0 100 100" enable-background="new 0 0 100 100" xml:space="preserve">
<g>
	<circle fill="none" cx="36.71" cy="17.265" r="1.232"/>
	<rect x="51" y="32" fill="none" width="18" height="18"/>
	<rect x="31" y="32" fill="none" width="17" height="18"/>
	<rect x="51" y="53" fill="none" width="18" height="18"/>
	<rect x="31" y="53" fill="none" width="17" height="18"/>
	<path fill="none" d="M51,29h18V15.5c0-3.033-2.468-5.5-5.5-5.5H51V29z"/>
	<path fill="none" d="M48,29V10H36.5c-3.033,0-5.5,2.467-5.5,5.5V29H48z M44.114,16.039c0.83,0,1.504,0.673,1.504,1.504
		c0,0.831-0.674,1.504-1.504,1.504s-1.504-0.673-1.504-1.504C42.61,16.712,43.284,16.039,44.114,16.039z M36.71,13.034
		c2.333,0,4.231,1.898,4.231,4.232c0,2.333-1.898,4.231-4.231,4.231s-4.231-1.898-4.231-4.231
		C32.479,14.932,34.377,13.034,36.71,13.034z"/>
	<path fill="none" d="M48,74H31v10.5c0,3.032,2.467,5.5,5.5,5.5H48V74z"/>
	<path fill="none" d="M51,74v16h12.5c3.032,0,5.5-2.468,5.5-5.5V74H51z"/>
	<path fill="#3C3A40" d="M63.5,7h-27c-4.687,0-8.5,3.813-8.5,8.5v69c0,4.687,3.813,8.5,8.5,8.5h27c4.687,0,8.5-3.813,8.5-8.5v-69
		C72,10.813,68.187,7,63.5,7z M69,15.5V29H51V10h12.5C66.532,10,69,12.467,69,15.5z M48,53v18H31V53H48z M31,50V32h17v18H31z M51,53
		h18v18H51V53z M51,50V32h18v18H51z M36.5,10H48v19H31V15.5C31,12.467,33.467,10,36.5,10z M31,84.5V74h17v16H36.5
		C33.467,90,31,87.532,31,84.5z M63.5,90H51V74h18v10.5C69,87.532,66.532,90,63.5,90z"/>
	<path fill="#3C3A40" d="M36.71,21.497c2.333,0,4.231-1.898,4.231-4.231c0-2.333-1.898-4.232-4.231-4.232s-4.231,1.898-4.231,4.232
		C32.479,19.599,34.377,21.497,36.71,21.497z M36.71,16.034c0.679,0,1.231,0.553,1.231,1.232s-0.552,1.231-1.231,1.231
		s-1.231-0.552-1.231-1.231S36.031,16.034,36.71,16.034z"/>
	<circle fill="#3C3A40" cx="44.114" cy="17.543" r="1.504"/>
</g>
</svg>
