<?xml version="1.0" encoding="utf-8"?>
<!-- Generator: Adobe Illustrator 16.0.0, SVG Export Plug-In . SVG Version: 6.00 Build 0)  -->
<!DOCTYPE svg PUBLIC "-//W3C//DTD SVG 1.1//EN" "http://www.w3.org/Graphics/SVG/1.1/DTD/svg11.dtd">
<svg version="1.1" id="Layer_1" xmlns="http://www.w3.org/2000/svg" xmlns:xlink="http://www.w3.org/1999/xlink" x="0px" y="0px"
	 width="100px" height="100px" viewBox="0 0 100 100" enable-background="new 0 0 100 100" xml:space="preserve">
<g>
	<path fill="none" d="M50.333,24.575c-6.488,0-11.766,5.278-11.766,11.766s5.278,11.765,11.766,11.765
		c6.487,0,11.766-5.278,11.766-11.765S56.82,24.575,50.333,24.575z"/>
	<circle fill="none" cx="37.044" cy="16.932" r="1.231"/>
	<path fill="none" d="M63.5,10h-27c-3.033,0-5.5,2.467-5.5,5.5v69c0,3.032,2.467,5.5,5.5,5.5h27c3.032,0,5.5-2.468,5.5-5.5v-69
		C69,12.467,66.532,10,63.5,10z M44.447,15.705c0.83,0,1.504,0.673,1.504,1.504c0,0.831-0.674,1.504-1.504,1.504
		s-1.504-0.673-1.504-1.504C42.943,16.378,43.617,15.705,44.447,15.705z M32.813,16.932c0-2.333,1.898-4.232,4.231-4.232
		s4.231,1.898,4.231,4.232c0,2.333-1.898,4.231-4.231,4.231S32.813,19.265,32.813,16.932z M50.333,51.389
		c-8.298,0-15.049-6.75-15.049-15.048s6.751-15.049,15.049-15.049s15.049,6.751,15.049,15.049S58.631,51.389,50.333,51.389z"/>
	<path fill="#3C3A40" d="M63.5,7h-27c-4.687,0-8.5,3.813-8.5,8.5v69c0,4.687,3.813,8.5,8.5,8.5h27c4.687,0,8.5-3.813,8.5-8.5v-69
		C72,10.813,68.187,7,63.5,7z M69,84.5c0,3.032-2.468,5.5-5.5,5.5h-27c-3.033,0-5.5-2.468-5.5-5.5v-69c0-3.033,2.467-5.5,5.5-5.5h27
		c3.032,0,5.5,2.467,5.5,5.5V84.5z"/>
	<path fill="#3C3A40" d="M41.275,16.932c0-2.333-1.898-4.232-4.231-4.232s-4.231,1.898-4.231,4.232c0,2.333,1.898,4.231,4.231,4.231
		S41.275,19.265,41.275,16.932z M35.813,16.932c0-0.679,0.552-1.232,1.231-1.232s1.231,0.553,1.231,1.232s-0.552,1.231-1.231,1.231
		S35.813,17.611,35.813,16.932z"/>
	<circle fill="#3C3A40" cx="44.447" cy="17.209" r="1.504"/>
	<path fill="#3C3A40" d="M50,21.292c-8.298,0-15.049,6.751-15.049,15.049S41.702,51.389,50,51.389s15.049-6.75,15.049-15.048
		S58.298,21.292,50,21.292z M50,48.105c-6.488,0-11.766-5.278-11.766-11.765S43.512,24.575,50,24.575
		c6.487,0,11.766,5.278,11.766,11.766S56.487,48.105,50,48.105z"/>
</g>
</svg>
