<?xml version="1.0" encoding="utf-8"?>
<!-- Generator: Adobe Illustrator 16.0.0, SVG Export Plug-In . SVG Version: 6.00 Build 0)  -->
<!DOCTYPE svg PUBLIC "-//W3C//DTD SVG 1.1//EN" "http://www.w3.org/Graphics/SVG/1.1/DTD/svg11.dtd">
<svg version="1.1" id="Layer_1" xmlns="http://www.w3.org/2000/svg" xmlns:xlink="http://www.w3.org/1999/xlink" x="0px" y="0px"
	 width="100px" height="100px" viewBox="0 0 100 100" enable-background="new 0 0 100 100" xml:space="preserve">
<g>
	<rect x="51" y="35" fill="none" width="18" height="20"/>
	<path fill="none" d="M56,10H36.5c-3.033,0-5.5,2.467-5.5,5.5V32h25V10z M36.544,21.497c-2.333,0-4.231-1.898-4.231-4.231
		c0-2.333,1.898-4.232,4.231-4.232s4.231,1.898,4.231,4.232C40.775,19.599,38.877,21.497,36.544,21.497z M43.947,19.047
		c-0.83,0-1.504-0.673-1.504-1.504c0-0.831,0.674-1.504,1.504-1.504s1.504,0.673,1.504,1.504
		C45.451,18.374,44.777,19.047,43.947,19.047z"/>
	<circle fill="none" cx="36.544" cy="17.265" r="1.232"/>
	<path fill="none" d="M69,32V15.5c0-3.033-2.468-5.5-5.5-5.5H59v22H69z"/>
	<path fill="none" d="M43,58v32h20.5c3.032,0,5.5-2.468,5.5-5.5V58H43z"/>
	<path fill="none" d="M40,58h-9v26.5c0,3.032,2.467,5.5,5.5,5.5H40V58z"/>
	<rect x="31" y="35" fill="none" width="17" height="20"/>
	<path fill="#3C3A40" d="M63.5,7h-27c-4.687,0-8.5,3.813-8.5,8.5V32v3v20v3v26.5c0,4.687,3.813,8.5,8.5,8.5h27
		c4.687,0,8.5-3.813,8.5-8.5v-69C72,10.813,68.187,7,63.5,7z M63.5,10c3.032,0,5.5,2.467,5.5,5.5V32H59V10H63.5z M69,35v20H51V35H69
		z M31,15.5c0-3.033,2.467-5.5,5.5-5.5H56v22H31V15.5z M31,35h17v20H31V35z M31,84.5V58h9v32h-3.5C33.467,90,31,87.532,31,84.5z
		 M63.5,90H43V58h26v26.5C69,87.532,66.532,90,63.5,90z"/>
	<path fill="#3C3A40" d="M36.544,13.034c-2.333,0-4.231,1.898-4.231,4.232c0,2.333,1.898,4.231,4.231,4.231s4.231-1.898,4.231-4.231
		C40.775,14.932,38.877,13.034,36.544,13.034z M36.544,18.497c-0.679,0-1.231-0.552-1.231-1.231s0.552-1.232,1.231-1.232
		s1.231,0.553,1.231,1.232S37.223,18.497,36.544,18.497z"/>
	<circle fill="#3C3A40" cx="43.947" cy="17.543" r="1.504"/>
</g>
</svg>
