<?xml version="1.0" encoding="utf-8"?>
<!-- Generator: Adobe Illustrator 16.0.0, SVG Export Plug-In . SVG Version: 6.00 Build 0)  -->
<!DOCTYPE svg PUBLIC "-//W3C//DTD SVG 1.1//EN" "http://www.w3.org/Graphics/SVG/1.1/DTD/svg11.dtd">
<svg version="1.1" id="Layer_1" xmlns="http://www.w3.org/2000/svg" xmlns:xlink="http://www.w3.org/1999/xlink" x="0px" y="0px"
	 width="100px" height="100px" viewBox="0 0 100 100" enable-background="new 0 0 100 100" xml:space="preserve">
<g>
	<path fill="none" d="M65.808,10.514C65.104,10.188,64.324,10,63.5,10h-27c-3.033,0-5.5,2.467-5.5,5.5v30.3L65.808,10.514z
		 M44.447,15.705c0.83,0,1.504,0.673,1.504,1.504c0,0.831-0.674,1.504-1.504,1.504s-1.504-0.673-1.504-1.504
		C42.943,16.378,43.617,15.705,44.447,15.705z M37.044,12.7c2.333,0,4.231,1.898,4.231,4.232c0,2.333-1.898,4.231-4.231,4.231
		s-4.231-1.898-4.231-4.231C32.813,14.599,34.711,12.7,37.044,12.7z"/>
	<circle fill="none" cx="37.044" cy="16.932" r="1.232"/>
	<path fill="none" d="M31,50.332l37.323,36.807C68.754,86.354,69,85.456,69,84.5v-69c0-1.119-0.338-2.16-0.914-3.029L31,49.97
		V50.332z"/>
	<path fill="none" d="M31,54.449V84.5c0,3.032,2.467,5.5,5.5,5.5h27c0.99,0,1.917-0.267,2.721-0.727L31,54.449z"/>
	<path fill="#3C3A40" d="M63.5,7h-27c-4.687,0-8.5,3.813-8.5,8.5v69c0,4.687,3.813,8.5,8.5,8.5h27c4.687,0,8.5-3.813,8.5-8.5v-69
		C72,10.813,68.187,7,63.5,7z M69,15.5v69c0,0.956-0.246,1.854-0.677,2.639L31,50.332V49.97l37.086-37.499
		C68.662,13.34,69,14.381,69,15.5z M36.5,10h27c0.824,0,1.604,0.188,2.308,0.514L31,45.8V15.5C31,12.467,33.467,10,36.5,10z
		 M36.5,90c-3.033,0-5.5-2.468-5.5-5.5V54.449l35.221,34.824C65.417,89.733,64.49,90,63.5,90H36.5z"/>
	<path fill="#3C3A40" d="M37.044,21.164c2.333,0,4.231-1.898,4.231-4.231c0-2.333-1.898-4.232-4.231-4.232s-4.231,1.898-4.231,4.232
		C32.813,19.265,34.711,21.164,37.044,21.164z M37.044,15.7c0.679,0,1.231,0.553,1.231,1.232s-0.552,1.231-1.231,1.231
		s-1.231-0.552-1.231-1.231S36.365,15.7,37.044,15.7z"/>
	<circle fill="#3C3A40" cx="44.447" cy="17.209" r="1.504"/>
</g>
</svg>
