<?xml version="1.0" encoding="utf-8"?>
<!-- Generator: Adobe Illustrator 16.0.0, SVG Export Plug-In . SVG Version: 6.00 Build 0)  -->
<!DOCTYPE svg PUBLIC "-//W3C//DTD SVG 1.1//EN" "http://www.w3.org/Graphics/SVG/1.1/DTD/svg11.dtd">
<svg version="1.1" id="Layer_1" xmlns="http://www.w3.org/2000/svg" xmlns:xlink="http://www.w3.org/1999/xlink" x="0px" y="0px"
	 width="100px" height="100px" viewBox="0 0 100 100" enable-background="new 0 0 100 100" xml:space="preserve">
<g>
	<path fill="none" d="M51.5,69h16V18.5c0-3.033-2.468-5.5-5.5-5.5H51.5V69z"/>
	<path fill="none" d="M48.5,32V13H38c-3.033,0-5.5,2.467-5.5,5.5V32H48.5z M45.223,18.798c0.771,0,1.396,0.625,1.396,1.396
		c0,0.771-0.625,1.396-1.396,1.396s-1.396-0.625-1.396-1.396C43.828,19.423,44.453,18.798,45.223,18.798z M38.354,15.902
		c2.225,0,4.034,1.81,4.034,4.034s-1.81,4.034-4.034,4.034s-4.034-1.81-4.034-4.034S36.13,15.902,38.354,15.902z"/>
	<circle fill="none" cx="38.354" cy="19.937" r="1.034"/>
	<path fill="none" d="M51.5,72v15H62c3.032,0,5.5-2.468,5.5-5.5V72H51.5z"/>
	<path fill="none" d="M48.5,35h-16v46.5c0,3.032,2.467,5.5,5.5,5.5h10.5V35z"/>
	<path fill="#3C3A40" d="M62,10H38c-4.687,0-8.5,3.813-8.5,8.5v63c0,4.687,3.813,8.5,8.5,8.5h24c4.687,0,8.5-3.813,8.5-8.5v-63
		C70.5,13.813,66.687,10,62,10z M67.5,18.5V69h-16V13H62C65.032,13,67.5,15.467,67.5,18.5z M38,13h10.5v19h-16V18.5
		C32.5,15.467,34.967,13,38,13z M32.5,81.5V35h16v52H38C34.967,87,32.5,84.532,32.5,81.5z M62,87H51.5V72h16v9.5
		C67.5,84.532,65.032,87,62,87z"/>
	<path fill="#3C3A40" d="M38.354,23.971c2.225,0,4.034-1.81,4.034-4.034s-1.81-4.034-4.034-4.034s-4.034,1.81-4.034,4.034
		S36.13,23.971,38.354,23.971z M38.354,18.902c0.57,0,1.034,0.464,1.034,1.034s-0.464,1.034-1.034,1.034s-1.034-0.464-1.034-1.034
		S37.784,18.902,38.354,18.902z"/>
	<circle fill="#3C3A40" cx="45.223" cy="20.193" r="1.396"/>
</g>
</svg>
