<?xml version="1.0" encoding="utf-8"?>
<!-- Generator: Adobe Illustrator 16.0.0, SVG Export Plug-In . SVG Version: 6.00 Build 0)  -->
<!DOCTYPE svg PUBLIC "-//W3C//DTD SVG 1.1//EN" "http://www.w3.org/Graphics/SVG/1.1/DTD/svg11.dtd">
<svg version="1.1" id="Layer_1" xmlns="http://www.w3.org/2000/svg" xmlns:xlink="http://www.w3.org/1999/xlink" x="0px" y="0px"
	 width="100px" height="100px" viewBox="0 0 100 100" enable-background="new 0 0 100 100" xml:space="preserve">
<g>
	<circle fill="none" cx="37.044" cy="16.932" r="1.232"/>
	<path fill="none" d="M69,35V15.5c0-3.033-2.468-5.5-5.5-5.5h-27c-3.033,0-5.5,2.467-5.5,5.5V35H69z M44.447,15.705
		c0.83,0,1.504,0.673,1.504,1.504c0,0.831-0.674,1.504-1.504,1.504s-1.504-0.673-1.504-1.504
		C42.943,16.378,43.617,15.705,44.447,15.705z M37.044,12.7c2.333,0,4.231,1.898,4.231,4.232c0,2.333-1.898,4.231-4.231,4.231
		s-4.231-1.898-4.231-4.231C32.813,14.599,34.711,12.7,37.044,12.7z"/>
	<path fill="none" d="M31,67v17.5c0,3.032,2.467,5.5,5.5,5.5h27c3.032,0,5.5-2.468,5.5-5.5V67H31z"/>
	<rect x="31" y="38" fill="none" width="38" height="26"/>
	<path fill="#3D3B40" d="M63.5,7h-27c-4.687,0-8.5,3.813-8.5,8.5v69c0,4.687,3.813,8.5,8.5,8.5h27c4.687,0,8.5-3.813,8.5-8.5v-69
		C72,10.813,68.187,7,63.5,7z M36.5,10h27c3.032,0,5.5,2.467,5.5,5.5V35H31V15.5C31,12.467,33.467,10,36.5,10z M69,38v26H31V38H69z
		 M63.5,90h-27c-3.033,0-5.5-2.468-5.5-5.5V67h38v17.5C69,87.532,66.532,90,63.5,90z"/>
	<path fill="#3D3B40" d="M37.044,21.164c2.333,0,4.231-1.898,4.231-4.231c0-2.333-1.898-4.232-4.231-4.232s-4.231,1.898-4.231,4.232
		C32.813,19.265,34.711,21.164,37.044,21.164z M37.044,15.7c0.679,0,1.231,0.553,1.231,1.232s-0.552,1.231-1.231,1.231
		s-1.231-0.552-1.231-1.231S36.365,15.7,37.044,15.7z"/>
	<circle fill="#3D3B40" cx="44.447" cy="17.209" r="1.504"/>
</g>
</svg>
