<?xml version="1.0" encoding="utf-8"?>
<!-- Generator: Adobe Illustrator 16.0.0, SVG Export Plug-In . SVG Version: 6.00 Build 0)  -->
<!DOCTYPE svg PUBLIC "-//W3C//DTD SVG 1.1//EN" "http://www.w3.org/Graphics/SVG/1.1/DTD/svg11.dtd">
<svg version="1.1" id="Layer_1" xmlns="http://www.w3.org/2000/svg" xmlns:xlink="http://www.w3.org/1999/xlink" x="0px" y="0px"
	 width="100px" height="100px" viewBox="0 0 100 100" enable-background="new 0 0 100 100" xml:space="preserve">
<g>
	<rect x="31" y="53" fill="none" width="17" height="18"/>
	<path fill="none" d="M69,29V15.5c0-3.033-2.468-5.5-5.5-5.5h-27c-3.033,0-5.5,2.467-5.5,5.5V29H69z M44.781,16.039
		c0.83,0,1.504,0.673,1.504,1.504c0,0.831-0.674,1.504-1.504,1.504s-1.504-0.673-1.504-1.504
		C43.277,16.712,43.951,16.039,44.781,16.039z M37.377,13.034c2.334,0,4.232,1.898,4.232,4.232c0,2.333-1.898,4.231-4.232,4.231
		c-2.333,0-4.23-1.898-4.23-4.231C33.146,14.932,35.044,13.034,37.377,13.034z"/>
	<rect x="31" y="32" fill="none" width="17" height="18"/>
	<circle fill="none" cx="37.377" cy="17.265" r="1.232"/>
	<rect x="51" y="53" fill="none" width="18" height="18"/>
	<path fill="none" d="M31,74v10.5c0,3.032,2.467,5.5,5.5,5.5h27c3.032,0,5.5-2.468,5.5-5.5V74H31z"/>
	<rect x="51" y="32" fill="none" width="18" height="18"/>
	<path fill="#3C3A40" d="M63.5,7h-27c-4.687,0-8.5,3.813-8.5,8.5v69c0,4.687,3.813,8.5,8.5,8.5h27c4.687,0,8.5-3.813,8.5-8.5v-69
		C72,10.813,68.187,7,63.5,7z M36.5,10h27c3.032,0,5.5,2.467,5.5,5.5V29H31V15.5C31,12.467,33.467,10,36.5,10z M48,53v18H31V53H48z
		 M31,50V32h17v18H31z M51,53h18v18H51V53z M51,50V32h18v18H51z M63.5,90h-27c-3.033,0-5.5-2.468-5.5-5.5V74h38v10.5
		C69,87.532,66.532,90,63.5,90z"/>
	<path fill="#3C3A40" d="M37.377,21.497c2.334,0,4.232-1.898,4.232-4.231c0-2.333-1.898-4.232-4.232-4.232
		c-2.333,0-4.23,1.898-4.23,4.232C33.146,19.599,35.044,21.497,37.377,21.497z M37.377,16.034c0.68,0,1.232,0.553,1.232,1.232
		s-0.553,1.231-1.232,1.231c-0.679,0-1.23-0.552-1.23-1.231S36.698,16.034,37.377,16.034z"/>
	<circle fill="#3C3A40" cx="44.781" cy="17.543" r="1.504"/>
</g>
</svg>
