<?xml version="1.0" encoding="utf-8"?>
<!-- Generator: Adobe Illustrator 16.0.0, SVG Export Plug-In . SVG Version: 6.00 Build 0)  -->
<!DOCTYPE svg PUBLIC "-//W3C//DTD SVG 1.1//EN" "http://www.w3.org/Graphics/SVG/1.1/DTD/svg11.dtd">
<svg version="1.1" id="Layer_1" xmlns="http://www.w3.org/2000/svg" xmlns:xlink="http://www.w3.org/1999/xlink" x="0px" y="0px"
	 width="100px" height="100px" viewBox="0 0 100 100" enable-background="new 0 0 100 100" xml:space="preserve">
<g>
	<path fill="none" d="M63.5,10h-27c-3.033,0-5.5,2.467-5.5,5.5v69c0,3.032,2.467,5.5,5.5,5.5h27c3.032,0,5.5-2.468,5.5-5.5v-69
		C69,12.467,66.532,10,63.5,10z M36.71,21.164c-2.333,0-4.231-1.898-4.231-4.231c0-2.333,1.898-4.232,4.231-4.232
		s4.231,1.898,4.231,4.232C40.942,19.265,39.043,21.164,36.71,21.164z M44.114,18.713c-0.83,0-1.504-0.673-1.504-1.504
		c0-0.831,0.674-1.504,1.504-1.504s1.504,0.673,1.504,1.504C45.618,18.04,44.944,18.713,44.114,18.713z"/>
	<circle fill="none" cx="36.71" cy="16.932" r="1.232"/>
	<path fill="#3C3A40" d="M63.5,7h-27c-4.687,0-8.5,3.813-8.5,8.5v69c0,4.687,3.813,8.5,8.5,8.5h27c4.687,0,8.5-3.813,8.5-8.5v-69
		C72,10.813,68.187,7,63.5,7z M69,84.5c0,3.032-2.468,5.5-5.5,5.5h-27c-3.033,0-5.5-2.468-5.5-5.5v-69c0-3.033,2.467-5.5,5.5-5.5h27
		c3.032,0,5.5,2.467,5.5,5.5V84.5z"/>
	<path fill="#3C3A40" d="M36.71,12.7c-2.333,0-4.231,1.898-4.231,4.232c0,2.333,1.898,4.231,4.231,4.231s4.231-1.898,4.231-4.231
		C40.942,14.599,39.043,12.7,36.71,12.7z M36.71,18.164c-0.679,0-1.231-0.552-1.231-1.231S36.031,15.7,36.71,15.7
		s1.231,0.553,1.231,1.232S37.39,18.164,36.71,18.164z"/>
	<circle fill="#3C3A40" cx="44.114" cy="17.209" r="1.504"/>
</g>
</svg>
