<?xml version="1.0" encoding="utf-8"?>
<!-- Generator: Adobe Illustrator 22.0.1, SVG Export Plug-In . SVG Version: 6.00 Build 0)  -->
<svg version="1.1" id="Layer_1" xmlns="http://www.w3.org/2000/svg" xmlns:xlink="http://www.w3.org/1999/xlink" x="0px" y="0px"
	 viewBox="0 0 100 100" style="enable-background:new 0 0 100 100;" xml:space="preserve">
<style type="text/css">
	.st0{fill:#3C3A40;}
	.st1{fill:#ED6D4F;}
</style>
<g>
	<path class="st0" d="M69.9,31.9c-7.2-7.9-15.1-13-20-13c-1.3,0-2.3,0.3-3.3,0.9L22.4,41.9c-4.3,4-4.7,10.7-0.7,15l18.8,20.7
		c2,2.2,4.9,3.5,7.9,3.5c2.7,0,5.2-1,7.2-2.8l19.4-17.7c0.2-0.5,0.4-1.1,0.5-1.5c0.2-0.7,0.5-1.3,0.7-1.8c0-0.1,0-0.2,0.1-0.2
		c-0.1-0.8-0.4-1.7-1.3-2C70.4,53.4,63.3,47,63.3,47c0.1,0,0.1,0,0.2,0c-1.6-1.4-3.2-3-4.9-4.8c-8.3-9.1-11.4-17.5-9.7-19
		c0.2-0.2,0.6-0.3,1-0.3c3.1,0,10,4,17,11.7c2.4,2.6,4.3,5.1,5.8,7.4c0-0.2-0.1-0.2-0.1-0.2s4.4,6,4.6,9c0.1,1,0.1,3.1-1,6.3
		c0,0.1,0,0.3,0,0.4c0.1,0.1,0.2,0.3,0.3,0.6c0.1,0.2,0.3,0.4,0.4,0.7l3-2.7C83.8,51.2,77.4,40.2,69.9,31.9z M52.3,74.8
		c-1,0.9-2.4,1.4-3.9,1.4c-1.7,0-3.3-0.7-4.3-1.8L25.2,53.7c-1-1.1-1.6-2.6-1.5-4.2c0.1-1.6,0.7-3,1.9-4l4.9-4.4v0L45,27.9
		C46.3,32.7,50.2,39,55.6,45c5.5,6,11.3,10.4,16,12.2L52.3,74.8z"/>
	<path class="st1" d="M76.2,57.6c0-0.1,0-0.3,0-0.4c0,0.1-0.1,0.2-0.1,0.2c-0.2,0.5-0.4,1.1-0.7,1.8c-0.2,0.5-0.4,1-0.5,1.5
		c-1.3,4-2.3,9.2,2.5,8.6c4.7-0.6,1.3-7.5-0.4-10.5c-0.1-0.3-0.3-0.5-0.4-0.7C76.4,57.9,76.3,57.7,76.2,57.6z"/>
	<path class="st1" d="M77.3,50.8c-0.2-3-4.6-9-4.6-9s0,0.1,0.1,0.2c0.3,1.2,1,6.3-9.3,4.9c-0.1,0-0.1,0-0.2,0c0,0,7.1,6.4,11.7,8.1
		c0.9,0.3,1.2,1.2,1.3,2C77.4,53.9,77.3,51.8,77.3,50.8z"/>
</g>
</svg>
