<?xml version="1.0" encoding="utf-8"?>
<!-- Generator: Adobe Illustrator 16.0.0, SVG Export Plug-In . SVG Version: 6.00 Build 0)  -->
<!DOCTYPE svg PUBLIC "-//W3C//DTD SVG 1.1//EN" "http://www.w3.org/Graphics/SVG/1.1/DTD/svg11.dtd">
<svg version="1.1" id="Layer_1" xmlns="http://www.w3.org/2000/svg" xmlns:xlink="http://www.w3.org/1999/xlink" x="0px" y="0px"
	 width="50px" height="50px" viewBox="0 0 50 50" enable-background="new 0 0 50 50" xml:space="preserve">
<g>
	<polygon fill="none" points="16.978,23.079 14.504,23.079 16.241,42.968 18.341,42.968 	"/>
	<polygon fill="none" points="21.348,42.968 23.492,42.968 23.492,23.079 19.985,23.079 	"/>
	<polygon fill="none" points="30.064,23.079 26.492,23.079 26.492,42.968 28.758,42.968 	"/>
	<polygon fill="none" points="31.765,42.968 33.492,42.968 35.23,23.079 33.071,23.079 	"/>
	
		<rect x="12.657" y="11.525" transform="matrix(-0.9896 -0.1442 0.1442 -0.9896 47.9345 28.5219)" fill="none" width="24.687" height="2"/>
	<path fill="none" d="M28.495,8.044l-5.566-0.812l-0.117,0.805c-0.006,0.042-0.021,0.081-0.03,0.121l5.591,0.815
		c0.003-0.043,0-0.084,0.006-0.127L28.495,8.044z"/>
	<path fill="#3C3A40" d="M36.867,20.079h-24c-0.421,0-0.822,0.177-1.106,0.486c-0.284,0.311-0.425,0.726-0.388,1.145l2,22.889
		c0.067,0.774,0.716,1.369,1.494,1.369h20c0.777,0,1.427-0.595,1.494-1.369l2-22.889c0.037-0.419-0.104-0.834-0.389-1.145
		C37.688,20.256,37.288,20.079,36.867,20.079z M26.492,23.079h3.572l-1.307,19.889h-2.266V23.079z M23.492,42.968h-2.145
		l-1.362-19.889h3.507V42.968z M14.504,23.079h2.474l1.363,19.889h-2.1L14.504,23.079z M33.492,42.968h-1.728l1.307-19.889h2.159
		L33.492,42.968z"/>
	<path fill="#EC6C4F" d="M22.812,8.037l0.117-0.805l5.566,0.812l-0.117,0.803c-0.006,0.043-0.003,0.084-0.006,0.127L31.306,9.4
		c0.01-0.042,0.034-0.076,0.041-0.12l0.334-2.288c0.058-0.394-0.044-0.794-0.282-1.113c-0.237-0.318-0.592-0.53-0.986-0.588
		l-8.535-1.243c-0.815-0.118-1.581,0.447-1.7,1.268l-0.334,2.289c-0.006,0.042-0.003,0.083-0.005,0.125l2.943,0.429
		C22.791,8.118,22.806,8.079,22.812,8.037z"/>
	<path fill="#3C3A40" d="M39.275,10.562L31.306,9.4l-2.934-0.427l-5.591-0.815l-2.943-0.429l-7.96-1.159
		c-0.398-0.058-0.795,0.043-1.113,0.281c-0.319,0.238-0.53,0.593-0.588,0.986l-0.721,4.948c-0.119,0.819,0.448,1.581,1.269,1.7
		l27.398,3.992c0.071,0.01,0.144,0.016,0.216,0.016c0.321,0,0.636-0.104,0.896-0.298c0.319-0.237,0.53-0.593,0.588-0.986
		l0.721-4.947C40.663,11.442,40.096,10.682,39.275,10.562z M37.07,15.293l-24.429-3.559l0.288-1.979l24.43,3.56L37.07,15.293z"/>
</g>
</svg>
