<?xml version="1.0" encoding="utf-8"?>
<!-- Generator: Adobe Illustrator 16.0.0, SVG Export Plug-In . SVG Version: 6.00 Build 0)  -->
<!DOCTYPE svg PUBLIC "-//W3C//DTD SVG 1.1//EN" "http://www.w3.org/Graphics/SVG/1.1/DTD/svg11.dtd">
<svg version="1.1" id="Layer_1" xmlns="http://www.w3.org/2000/svg" xmlns:xlink="http://www.w3.org/1999/xlink" x="0px" y="0px"
	 width="30px" height="30px" viewBox="0 0 30 30" enable-background="new 0 0 30 30" xml:space="preserve">
<g>
	<g>
		<g>
			<g>
				<g>
					<defs>
						<circle id="SVGID_1_" cx="15" cy="15" r="15.001"/>
					</defs>
					<clipPath id="SVGID_2_">
						<use xlink:href="#SVGID_1_"  overflow="visible"/>
					</clipPath>
					<g clip-path="url(#SVGID_2_)">
						<circle fill="#3A3A3A" cx="15" cy="15" r="15.537"/>
						<g>
							<path fill="#6BE256" d="M14.892,14.994V-1.07c-2.762,0.016-5.528,0.743-8.006,2.196L14.892,14.994z"/>
							<path fill="#23CC3F" d="M14.892,14.994L6.86,1.081C4.475,2.479,2.443,4.49,1.023,6.988L14.892,14.994z"/>
							<path fill="#05C677" d="M14.892,14.999L0.98,6.966c-1.367,2.403-2.123,5.141-2.104,8.033H14.892z"/>
							<path fill="#1A95E8" d="M14.895,14.999H-1.171c0.019,2.788,0.734,5.513,2.196,8.008L14.895,14.999z"/>
							<path fill="#126CAF" d="M14.898,14.999L0.983,23.031c1.408,2.404,3.391,4.406,5.907,5.837L14.898,14.999z"/>
							<path fill="#3232CC" d="M14.892,14.994L6.859,28.907c2.422,1.379,5.142,2.123,8.033,2.104V14.994L14.892,14.994z"/>
							<path fill="#7621D8" d="M14.892,14.994v16.066c2.788-0.018,5.513-0.733,8.008-2.194L14.892,14.994z"/>
							<path fill="#A0085F" d="M14.894,14.994l8.031,13.913c2.406-1.406,4.408-3.39,5.837-5.905L14.894,14.994z"/>
							<path fill="#F2320C" d="M14.894,14.999l13.913,8.035c1.378-2.422,2.121-5.142,2.102-8.035H14.894z"/>
							<path fill="#F4580B" d="M14.895,14.999h16.066c-0.016-2.784-0.732-5.511-2.195-8.008L14.895,14.999z"/>
							<path fill="#FFAB24" d="M14.898,14.999l13.913-8.033c-1.408-2.406-3.391-4.407-5.904-5.838L14.898,14.999z"/>
							<path fill="#FFDF22" d="M14.892,14.994l8.033-13.913c-2.419-1.378-5.14-2.119-8.033-2.104V14.994z"/>
						</g>
					</g>
				</g>
			</g>
		</g>
	</g>
</g>
</svg>
