<?xml version="1.0" encoding="utf-8"?>
<!-- Generator: Adobe Illustrator 16.0.0, SVG Export Plug-In . SVG Version: 6.00 Build 0)  -->
<!DOCTYPE svg PUBLIC "-//W3C//DTD SVG 1.1//EN" "http://www.w3.org/Graphics/SVG/1.1/DTD/svg11.dtd">
<svg version="1.1" id="Layer_1" xmlns="http://www.w3.org/2000/svg" xmlns:xlink="http://www.w3.org/1999/xlink" x="0px" y="0px"
	 width="50px" height="50px" viewBox="0 0 50 50" enable-background="new 0 0 50 50" xml:space="preserve">
<g>
	<g>
		<rect x="5" y="7" fill="#FCFCFC" width="39" height="36"/>
		<path fill="#E8E8E8" d="M2,4v42h45V4H2z M44,43H5V7h39V43z"/>
	</g>
	<g>
		<path fill="#3C3A40" d="M26.597,33.338l-0.118,0.397h-5.994l0.15-0.397c0.602-0.015,0.999-0.064,1.192-0.15
			c0.315-0.122,0.548-0.29,0.698-0.505c0.236-0.337,0.479-0.938,0.73-1.805l2.535-8.787c0.215-0.73,0.322-1.282,0.322-1.654
			c0-0.187-0.047-0.344-0.14-0.473s-0.235-0.228-0.425-0.295c-0.189-0.068-0.561-0.103-1.111-0.103l0.129-0.397h5.629l-0.118,0.397
			c-0.458-0.007-0.799,0.043-1.021,0.15c-0.322,0.144-0.568,0.348-0.736,0.612s-0.385,0.853-0.649,1.762l-2.524,8.787
			c-0.229,0.81-0.344,1.325-0.344,1.547c0,0.179,0.045,0.331,0.135,0.457c0.089,0.125,0.232,0.222,0.43,0.289
			C25.563,33.239,25.974,33.295,26.597,33.338z"/>
	</g>
</g>
</svg>
