<?xml version="1.0" encoding="utf-8"?>
<!-- Generator: Adobe Illustrator 16.0.0, SVG Export Plug-In . SVG Version: 6.00 Build 0)  -->
<!DOCTYPE svg PUBLIC "-//W3C//DTD SVG 1.1//EN" "http://www.w3.org/Graphics/SVG/1.1/DTD/svg11.dtd">
<svg version="1.1" id="Layer_1" xmlns="http://www.w3.org/2000/svg" xmlns:xlink="http://www.w3.org/1999/xlink" x="0px" y="0px"
	 width="100px" height="100px" viewBox="0 0 100 100" enable-background="new 0 0 100 100" xml:space="preserve">
<g>
	<g>
		<g>
			<g>
				<path fill="#3C3A40" d="M62.5,83h-25c-2.481,0-4.5-2.019-4.5-4.5v-57c0-2.481,2.019-4.5,4.5-4.5h25c2.481,0,4.5,2.019,4.5,4.5
					v57C67,80.981,64.981,83,62.5,83z M37.5,20c-0.827,0-1.5,0.673-1.5,1.5v57c0,0.827,0.673,1.5,1.5,1.5h25
					c0.827,0,1.5-0.673,1.5-1.5v-57c0-0.827-0.673-1.5-1.5-1.5H37.5z"/>
			</g>
		</g>
	</g>
	<g>
		<path fill="#3C3A40" d="M45.224,35.831c0.298-0.279,0.628-0.544,0.99-0.795c0.361-0.25,0.756-0.472,1.185-0.665
			c0.429-0.192,0.89-0.344,1.387-0.455c0.496-0.11,1.033-0.167,1.612-0.167c0.76,0,1.466,0.111,2.117,0.333
			c0.649,0.222,1.211,0.535,1.684,0.939c0.472,0.405,0.842,0.896,1.113,1.475c0.268,0.578,0.404,1.229,0.404,1.951
			c0,0.732-0.109,1.363-0.326,1.894c-0.217,0.529-0.491,0.994-0.823,1.394c-0.333,0.4-0.693,0.747-1.084,1.041
			c-0.391,0.294-0.759,0.571-1.105,0.831c-0.347,0.261-0.643,0.521-0.89,0.781c-0.244,0.26-0.388,0.549-0.426,0.867l-0.26,2.211
			h-1.764l-0.174-2.399c-0.038-0.434,0.044-0.812,0.246-1.134c0.203-0.323,0.467-0.626,0.795-0.911s0.689-0.563,1.084-0.838
			s0.764-0.581,1.105-0.918c0.342-0.337,0.629-0.721,0.86-1.149s0.347-0.941,0.347-1.539c0-0.414-0.082-0.79-0.246-1.127
			c-0.164-0.338-0.385-0.624-0.664-0.86s-0.609-0.417-0.99-0.542c-0.381-0.125-0.788-0.188-1.222-0.188
			c-0.587,0-1.091,0.072-1.511,0.217c-0.419,0.144-0.772,0.303-1.062,0.477c-0.289,0.174-0.522,0.333-0.701,0.477
			c-0.178,0.145-0.325,0.217-0.44,0.217c-0.241,0-0.429-0.111-0.564-0.333L45.224,35.831z M48.041,53.102
			c0-0.25,0.047-0.486,0.139-0.708c0.091-0.222,0.217-0.414,0.376-0.578c0.158-0.163,0.349-0.294,0.571-0.39
			c0.221-0.097,0.457-0.145,0.707-0.145s0.486,0.048,0.708,0.145c0.222,0.096,0.415,0.227,0.579,0.39
			c0.163,0.164,0.293,0.356,0.39,0.578s0.144,0.458,0.144,0.708c0,0.261-0.047,0.499-0.144,0.716s-0.227,0.407-0.39,0.571
			c-0.164,0.163-0.357,0.291-0.579,0.383c-0.222,0.091-0.458,0.137-0.708,0.137s-0.486-0.046-0.707-0.137
			c-0.223-0.092-0.413-0.22-0.571-0.383c-0.159-0.164-0.285-0.354-0.376-0.571C48.088,53.601,48.041,53.362,48.041,53.102z"/>
	</g>
</g>
</svg>
