<?xml version="1.0" encoding="utf-8"?>
<!-- Generator: Adobe Illustrator 16.0.0, SVG Export Plug-In . SVG Version: 6.00 Build 0)  -->
<!DOCTYPE svg PUBLIC "-//W3C//DTD SVG 1.1//EN" "http://www.w3.org/Graphics/SVG/1.1/DTD/svg11.dtd">
<svg version="1.1" id="Layer_1" xmlns="http://www.w3.org/2000/svg" xmlns:xlink="http://www.w3.org/1999/xlink" x="0px" y="0px"
	 width="50px" height="50px" viewBox="0 0 50 50" enable-background="new 0 0 50 50" xml:space="preserve">
<g>
	<path fill="#3C3A40" d="M46.87,26.82c-0.291,0.225-0.658,0.531-1.097,0.896c-3.301,2.756-11.033,9.209-21.225,9.209
		c-7.48,0-14.855-3.437-21.921-10.213L1.229,25.28l1.399-1.161C9.695,17.343,17.07,13.907,24.55,13.907
		c10.189,0,17.921,6.453,21.222,9.208c0.439,0.366,0.808,0.674,1.1,0.897l1.677,1.269L46.87,26.82z M5.634,25.417
		c6.196,5.647,12.555,8.51,18.916,8.51c9.101,0,15.986-5.745,19.3-8.51c-3.312-2.763-10.197-8.51-19.3-8.51
		C18.189,16.907,11.83,19.769,5.634,25.417z"/>
</g>
<g>
	<g>
		<path fill="#ED6D4F" d="M24.813,18.229c-4.108,0-7.438,3.33-7.438,7.438c0,4.106,3.33,7.438,7.438,7.438
			c4.107,0,7.438-3.33,7.438-7.438C32.25,21.559,28.92,18.229,24.813,18.229z M24.813,28.729c-1.691,0-3.063-1.371-3.063-3.063
			c0-1.692,1.371-3.063,3.063-3.063s3.063,1.371,3.063,3.063C27.876,27.357,26.504,28.729,24.813,28.729z"/>
	</g>
</g>
</svg>
