<?xml version="1.0" encoding="utf-8"?>
<!-- Generator: Adobe Illustrator 16.0.0, SVG Export Plug-In . SVG Version: 6.00 Build 0)  -->
<!DOCTYPE svg PUBLIC "-//W3C//DTD SVG 1.1//EN" "http://www.w3.org/Graphics/SVG/1.1/DTD/svg11.dtd">
<svg version="1.1" id="Layer_1" xmlns="http://www.w3.org/2000/svg" xmlns:xlink="http://www.w3.org/1999/xlink" x="0px" y="0px"
	 width="50px" height="50px" viewBox="0 0 50 50" enable-background="new 0 0 50 50" xml:space="preserve">
<path fill="#3C3A40" d="M38.91,10.938l-5.159-8.639l-1.748,3.134C24.158,3.069,15.451,5.491,9.985,11.68
	C6.24,15.921,4.37,21.367,4.72,27.016c0.351,5.648,2.879,10.822,7.121,14.567c3.905,3.449,8.832,5.31,13.998,5.31
	c0.444,0,0.892-0.015,1.339-0.041c0.818-0.052,1.44-0.756,1.391-1.574c-0.051-0.817-0.739-1.446-1.573-1.389
	c-4.851,0.305-9.542-1.309-13.188-4.529c-3.647-3.221-5.822-7.67-6.124-12.526c-0.301-4.857,1.307-9.541,4.528-13.188
	C16.841,8.4,23.873,6.319,30.52,8.092l-1.67,2.996L38.91,10.938z"/>
<g>
	<path fill="#3C3A40" d="M20.432,27.294v-2.54h2.425v2.54h1.6v2.111h-1.6v2.605h-2.425v-2.605h-5.493v-1.847l3.744-7.094h2.507
		l-3.53,6.828L20.432,27.294L20.432,27.294z"/>
	<path fill="#3C3A40" d="M28.369,22.643v2.029l1.203-0.017c2.605,0,4.289,1.435,4.289,3.497c0,2.408-1.766,3.957-4.486,3.957
		c-1.469,0-3.167-0.561-4.338-1.4l1.039-2.063c0.891,0.891,1.963,1.369,3.002,1.369c1.254,0,1.996-0.627,1.996-1.684
		c0-0.989-0.742-1.55-1.996-1.55c-0.627,0-2.375,0.032-3.117,0.082l0.016-6.399h7.392v2.177L28.369,22.643L28.369,22.643z"/>
	<path fill="#3C3A40" d="M39.719,20.498c0,1.056-0.891,1.931-1.963,1.931c-1.055,0-1.93-0.875-1.93-1.931s0.875-1.93,1.93-1.93
		C38.828,18.568,39.719,19.442,39.719,20.498z M36.833,20.498c0,0.495,0.412,0.891,0.923,0.891c0.528,0,0.957-0.396,0.957-0.891
		c0-0.478-0.429-0.891-0.957-0.891C37.245,19.607,36.833,20.021,36.833,20.498z"/>
</g>
</svg>
