<?xml version="1.0" encoding="utf-8"?>
<!-- Generator: Adobe Illustrator 16.0.0, SVG Export Plug-In . SVG Version: 6.00 Build 0)  -->
<!DOCTYPE svg PUBLIC "-//W3C//DTD SVG 1.1//EN" "http://www.w3.org/Graphics/SVG/1.1/DTD/svg11.dtd">
<svg version="1.1" id="Layer_1" xmlns="http://www.w3.org/2000/svg" xmlns:xlink="http://www.w3.org/1999/xlink" x="0px" y="0px"
	 width="50px" height="50px" viewBox="0 0 50 50" enable-background="new 0 0 50 50" xml:space="preserve">
<g>
	<path fill="#3C3A40" d="M7.884,11.343l5.159-8.639l1.748,3.134c7.846-2.364,16.552,0.058,22.018,6.246
		c3.746,4.241,5.616,9.688,5.267,15.336c-0.351,5.648-2.88,10.822-7.121,14.566c-3.904,3.449-8.832,5.31-13.998,5.31
		c-0.444,0-0.892-0.014-1.339-0.041c-0.818-0.051-1.44-0.755-1.39-1.573c0.05-0.817,0.739-1.447,1.573-1.39
		c4.852,0.306,9.542-1.308,13.188-4.528c3.646-3.222,5.822-7.671,6.123-12.527c0.302-4.856-1.307-9.539-4.527-13.188
		c-4.631-5.244-11.662-7.325-18.31-5.552l1.671,2.996L7.884,11.343z"/>
	<g>
		<path fill="#3C3A40" d="M12.85,27.698v-2.54h2.425v2.54h1.601v2.11h-1.601v2.606H12.85v-2.604H7.358v-1.848l3.744-7.093h2.507
			l-3.529,6.828H12.85z"/>
		<path fill="#3C3A40" d="M20.787,23.047v2.029l1.203-0.017c2.605,0,4.289,1.435,4.289,3.498c0,2.407-1.766,3.957-4.486,3.957
			c-1.469,0-3.167-0.561-4.338-1.4l1.039-2.063c0.891,0.892,1.963,1.369,3.002,1.369c1.254,0,1.996-0.627,1.996-1.683
			c0-0.989-0.742-1.551-1.996-1.551c-0.627,0-2.375,0.032-3.117,0.082l0.016-6.398h7.391v2.177L20.787,23.047L20.787,23.047z"/>
		<path fill="#3C3A40" d="M32.137,20.902c0,1.056-0.891,1.931-1.963,1.931c-1.055,0-1.93-0.875-1.93-1.931
			c0-1.056,0.875-1.93,1.93-1.93C31.246,18.973,32.137,19.847,32.137,20.902z M29.251,20.902c0,0.495,0.412,0.891,0.923,0.891
			c0.528,0,0.957-0.396,0.957-0.891c0-0.478-0.429-0.891-0.957-0.891C29.663,20.012,29.251,20.425,29.251,20.902z"/>
	</g>
</g>
</svg>
