<?xml version="1.0" encoding="utf-8"?>
<!-- Generator: Adobe Illustrator 16.0.0, SVG Export Plug-In . SVG Version: 6.00 Build 0)  -->
<!DOCTYPE svg PUBLIC "-//W3C//DTD SVG 1.1//EN" "http://www.w3.org/Graphics/SVG/1.1/DTD/svg11.dtd">
<svg version="1.1" id="Layer_1" xmlns="http://www.w3.org/2000/svg" xmlns:xlink="http://www.w3.org/1999/xlink" x="0px" y="0px"
	 width="100px" height="100px" viewBox="0 0 100 100" enable-background="new 0 0 100 100" xml:space="preserve">
<g>
	<path fill="none" d="M40.059,87c6.447-1.379,13.403-8.774,16.56-16.249c3.951-9.361,1.883-14.96-0.652-18.054
		c-1.823,1.926-3.681,3.435-5.476,4.358c-3.642,1.875-6.846,1.284-9.029-1.663c-3.414-4.609-1.667-7.354-0.757-8.32
		c2.718-2.887,9.165-2.622,14.076,0.579c0.29,0.188,0.643,0.435,1.034,0.745c7.156-8.875,13.292-24.161,10.963-32.611
		C65.83,14.125,64.045,13,62,13H38c-3.033,0-5.5,2.467-5.5,5.5v63c0,3.032,2.467,5.5,5.5,5.5H40.059z M45.223,18.798
		c0.771,0,1.396,0.625,1.396,1.396c0,0.771-0.625,1.396-1.396,1.396s-1.396-0.625-1.396-1.396
		C43.828,19.423,44.453,18.798,45.223,18.798z M34.32,19.937c0-2.225,1.81-4.034,4.034-4.034s4.034,1.81,4.034,4.034
		s-1.81,4.034-4.034,4.034S34.32,22.161,34.32,19.937z"/>
	<circle fill="none" cx="38.354" cy="19.937" r="1.034"/>
	<path fill="none" d="M42.888,49.129c-1.136,1.207,0.129,3.324,0.984,4.479c0.802,1.082,2.218,2.341,5.244,0.781
		c1.538-0.791,3.136-2.082,4.721-3.735c-0.245-0.186-0.479-0.348-0.694-0.488c-2.23-1.453-4.75-2.112-6.787-2.112
		C44.813,48.053,43.545,48.432,42.888,49.129z"/>
	<path fill="none" d="M57.943,50.432c3.096,3.568,6.149,10.325,1.438,21.485C56.8,78.031,52.218,83.757,46.987,87H62
		c3.032,0,5.5-2.468,5.5-5.5V32.752C65.301,39.183,61.826,45.634,57.943,50.432z"/>
	<path fill="#3C3A40" d="M62,10H38c-4.687,0-8.5,3.813-8.5,8.5v63c0,4.687,3.813,8.5,8.5,8.5h24c4.687,0,8.5-3.813,8.5-8.5v-63
		C70.5,13.813,66.687,10,62,10z M32.5,81.5v-63c0-3.033,2.467-5.5,5.5-5.5h24c2.045,0,3.83,1.125,4.777,2.785
		c2.329,8.45-3.807,23.736-10.963,32.611c-0.392-0.31-0.744-0.556-1.034-0.745c-4.911-3.2-11.358-3.466-14.076-0.579
		c-0.91,0.966-2.657,3.71,0.757,8.32c2.183,2.947,5.387,3.538,9.029,1.663c1.795-0.924,3.652-2.433,5.476-4.358
		c2.535,3.094,4.604,8.692,0.652,18.054C53.462,78.226,46.505,85.621,40.059,87H38C34.967,87,32.5,84.532,32.5,81.5z M53.838,50.653
		c-1.585,1.653-3.184,2.944-4.721,3.735c-3.026,1.56-4.442,0.301-5.244-0.781c-0.855-1.154-2.121-3.271-0.984-4.479
		c0.657-0.697,1.924-1.076,3.468-1.076c2.038,0,4.557,0.659,6.787,2.112C53.358,50.306,53.593,50.468,53.838,50.653z M62,87H46.987
		c5.231-3.243,9.813-8.969,12.395-15.083c4.711-11.16,1.657-17.917-1.438-21.485c3.883-4.797,7.357-11.249,9.557-17.68V81.5
		C67.5,84.532,65.032,87,62,87z"/>
	<path fill="#3C3A40" d="M42.389,19.937c0-2.225-1.81-4.034-4.034-4.034s-4.034,1.81-4.034,4.034s1.81,4.034,4.034,4.034
		S42.389,22.161,42.389,19.937z M37.32,19.937c0-0.57,0.464-1.034,1.034-1.034s1.034,0.464,1.034,1.034s-0.464,1.034-1.034,1.034
		S37.32,20.507,37.32,19.937z"/>
	<circle fill="#3C3A40" cx="45.223" cy="20.193" r="1.396"/>
</g>
</svg>
