<?xml version="1.0" encoding="utf-8"?>
<!-- Generator: Adobe Illustrator 16.0.0, SVG Export Plug-In . SVG Version: 6.00 Build 0)  -->
<!DOCTYPE svg PUBLIC "-//W3C//DTD SVG 1.1//EN" "http://www.w3.org/Graphics/SVG/1.1/DTD/svg11.dtd">
<svg version="1.1" id="Layer_1" xmlns="http://www.w3.org/2000/svg" xmlns:xlink="http://www.w3.org/1999/xlink" x="0px" y="0px"
	 width="68.809px" height="56.746px" viewBox="0 0 68.809 56.746" enable-background="new 0 0 68.809 56.746" xml:space="preserve">
<g>
	<g>
		<path fill="#08B546" d="M10.416,51.976c0,3.003-1.996,4.901-5.175,4.901C2.044,56.877,0,54.979,0,51.976v-6.585h2.888v6.585
			c0,1.542,0.99,2.481,2.372,2.481c1.361,0,2.284-0.939,2.284-2.481v-6.585h2.872V51.976z"/>
		<path fill="#08B546" d="M17.448,45.391c2.904,0,4.574,1.427,4.574,3.956c0,2.66-1.67,4.202-4.574,4.202h-2.062v3.197h-2.889
			V45.391H17.448z M15.387,51.281h1.915c1.265,0,1.997-0.636,1.997-1.836c0-1.187-0.732-1.786-1.997-1.786h-1.915V51.281z"/>
		<path fill="#08B546" d="M31.247,54.327v2.419H23.54V45.391h2.886v8.937H31.247z"/>
		<path fill="#08B546" d="M44.166,51.053c0,3.308-2.63,5.824-6.148,5.824c-3.506,0-6.135-2.501-6.135-5.824
			c0-3.312,2.629-5.761,6.135-5.761C41.536,45.292,44.166,47.757,44.166,51.053z M34.838,51.068c0,1.912,1.477,3.389,3.212,3.389
			c1.752,0,3.146-1.477,3.146-3.389c0-1.916-1.395-3.358-3.146-3.358C36.297,47.71,34.838,49.152,34.838,51.068z"/>
		<path fill="#08B546" d="M47.969,54.651l-0.826,2.095h-2.97l4.901-11.355h2.968l4.786,11.355h-3.083l-0.812-2.095H47.969z
			 M50.467,48.259l-1.653,4.204h3.276L50.467,48.259z"/>
		<path fill="#08B546" d="M62.773,45.391c3.569,0,6.035,2.304,6.035,5.678c0,3.358-2.498,5.678-6.149,5.678h-4.77V45.391H62.773z
			 M60.777,54.443h2.062c1.77,0,3.034-1.363,3.034-3.36c0-2.011-1.333-3.389-3.164-3.389h-1.932V54.443z"/>
	</g>
	<g>
		<path fill="#B2B2B2" d="M58.055,3.841C58.055,1.72,56.336,0,54.216,0h-42.24c-2.121,0-3.84,1.72-3.84,3.841v12.975H22.45
			c0.215-5.851,5.011-10.53,10.916-10.53c5.901,0,10.699,4.68,10.914,10.53h13.761v12.12c0.002-0.046,0.014-0.089,0.014-0.136V3.841
			z M16.104,8.417c-1.201,0-2.177-0.975-2.177-2.177s0.976-2.176,2.177-2.176s2.176,0.974,2.176,2.176S17.305,8.417,16.104,8.417z
			 M53.351,7.815h-6.72c-1.056,0-1.92-0.944-1.92-2s0.864-2,1.92-2h6.72c1.056,0,1.92,0.944,1.92,2S54.406,7.815,53.351,7.815z"/>
		<path fill="#08B546" d="M44.28,17c0.005,0,0.021,0.176,0.021,0.313c0,0.13-0.015,0.209-0.02,0.338
			c0.005,0.128,0.02,0.231,0.02,0.361c0,6.038-4.896,10.925-10.935,10.925c-6.042,0-10.937-4.904-10.937-10.942
			c0-0.13,0.015-0.259,0.02-0.387c-0.004-0.128-0.02-0.164-0.02-0.293c0-0.137,0.016-0.314,0.021-0.314H8.136H8v12.473
			C8,31.593,10.335,34,12.455,34h42.24C56.816,34,58,31.593,58,29.473v-0.537V17H44.28z"/>
		<g>
			<path fill="#B2B2B2" d="M33.366,28.158c-5.912,0-10.713-4.693-10.917-10.553c-0.004,0.128-0.02,0.254-0.02,0.384
				c0,6.038,4.895,10.937,10.937,10.937c6.038,0,10.935-4.898,10.935-10.937c0-0.13-0.015-0.256-0.02-0.384
				C44.077,23.465,39.274,28.158,33.366,28.158z"/>
		</g>
		<g>
			<path fill="#FFFFFF" d="M22.449,17.605c0.204,5.86,5.005,10.553,10.917,10.553c5.908,0,10.711-4.693,10.915-10.553
				c0.005-0.128,0.02-0.254,0.02-0.384c0-0.137-0.016-0.27-0.021-0.405c-0.215-5.851-5.013-10.53-10.914-10.53
				c-5.905,0-10.701,4.68-10.916,10.53c-0.005,0.136-0.021,0.269-0.021,0.405C22.43,17.351,22.445,17.477,22.449,17.605z
				 M38.956,17.905c0,3.088-2.502,5.591-5.59,5.591c-3.089,0-5.593-2.503-5.593-5.591c0-0.116,0.01-0.229,0.017-0.342
				c-0.007-0.114-0.017-0.227-0.017-0.342c0-3.088,2.504-5.591,5.593-5.591c3.088,0,5.59,2.503,5.59,5.591
				c0,0.116-0.011,0.229-0.018,0.342C38.945,17.677,38.956,17.79,38.956,17.905z"/>
		</g>
		<g>
			<path fill="#3C3A40" d="M33.366,25.032c-3.931,0-7.129-3.197-7.129-7.127c0-0.122,0.007-0.241,0.015-0.361l3.071-0.075
				c0.13,2.135,1.906,3.573,4.042,3.573c2.135,0,3.91-1.042,4.039-4.042h3.066c0.013,1,0.021,0.549,0.021,0.67
				C40.492,21.6,37.295,25.032,33.366,25.032z"/>
			<path fill="#2F2E33" d="M38.938,17.563c0.007,0.114,0.018,0.227,0.018,0.342c0,3.088-2.502,5.591-5.59,5.591
				c-3.089,0-5.593-2.503-5.593-5.591c0-0.116,0.01-0.229,0.017-0.342c0.178,2.928,2.603,5.25,5.576,5.25
				C36.339,22.813,38.761,20.491,38.938,17.563 M30.857,17.376l-6.133,0.002l-0.004,0.062c-0.011,0.154-0.019,0.308-0.019,0.464
				c0,4.777,3.887,8.663,8.665,8.663c4.776,0,8.662-3.886,8.662-8.663c0-0.157-0.008-0.311-0.019-0.464l-0.004-0.063l-6.133-0.001
				c-0.081,1.326-1.181,2.365-2.506,2.365C32.04,19.742,30.938,18.703,30.857,17.376L30.857,17.376z"/>
		</g>
		<g>
			<path fill="#2F2E33" d="M33.366,24.35c-3.758,0-6.88-2.94-7.109-6.693c-0.013-0.194-0.02-0.314-0.02-0.436
				c0-3.93,3.198-7.127,7.129-7.127c3.929,0,7.126,3.197,7.126,7.127c0,0.121-0.007,0.239-0.016,0.358
				C40.244,21.409,37.123,24.35,33.366,24.35z"/>
			<path fill="#4C4B4F" d="M33.366,11.63c3.088,0,5.59,2.503,5.59,5.591c0,0.116-0.011,0.229-0.018,0.342
				c-0.178,2.928-2.6,5.25-5.572,5.25c-2.973,0-5.397-2.323-5.576-5.25c-0.007-0.114-0.017-0.227-0.017-0.342
				C27.773,14.133,30.277,11.63,33.366,11.63 M33.263,18.726c0.755,0,1.369-0.613,1.369-1.369c0-0.754-0.614-1.368-1.369-1.368
				c-0.756,0-1.368,0.614-1.368,1.368C31.895,18.112,32.507,18.726,33.263,18.726 M33.366,8.558c-4.778,0-8.665,3.886-8.665,8.663
				c0,0.157,0.008,0.311,0.019,0.464l0.004,0.062c0.278,4.565,4.074,8.138,8.642,8.138c4.567,0,8.362-3.574,8.639-8.136l0.004-0.064
				c0.011-0.154,0.019-0.308,0.019-0.464C42.028,12.444,38.143,8.558,33.366,8.558L33.366,8.558z"/>
		</g>
		<circle fill="#A3B1C6" cx="33.263" cy="17.357" r="1.369"/>
		<circle fill="#08B546" cx="16.104" cy="6.241" r="2.176"/>
		<path fill="#FFFFFF" d="M53.351,4h-6.72c-1.056,0-1.92,0.944-1.92,2s0.864,2,1.92,2h6.72c1.056,0,1.92-0.944,1.92-2
			S54.406,4,53.351,4z"/>
	</g>
</g>
</svg>
