<?xml version="1.0" encoding="utf-8"?>
<!-- Generator: Adobe Illustrator 16.0.0, SVG Export Plug-In . SVG Version: 6.00 Build 0)  -->
<!DOCTYPE svg PUBLIC "-//W3C//DTD SVG 1.1//EN" "http://www.w3.org/Graphics/SVG/1.1/DTD/svg11.dtd">
<svg version="1.1" id="Layer_1" xmlns="http://www.w3.org/2000/svg" xmlns:xlink="http://www.w3.org/1999/xlink" x="0px" y="0px"
	 width="50px" height="50px" viewBox="0 0 50 50" enable-background="new 0 0 50 50" xml:space="preserve">
<g>
	<path fill="none" d="M28.615,10.688c-2.693-3.048-6.573-4.797-10.644-4.797c-3.459,0-6.794,1.263-9.39,3.556
		c-2.842,2.51-4.536,5.976-4.771,9.759C3.576,22.99,4.829,26.639,7.339,29.48c2.693,3.049,6.572,4.798,10.644,4.798
		c0,0,0.001,0,0.001,0c3.458,0,6.793-1.263,9.389-3.556C33.237,25.542,33.795,16.555,28.615,10.688z M23,22H13c-1.104,0-2-0.896-2-2
		s0.896-2,2-2h10c1.104,0,2,0.896,2,2S24.104,22,23,22z"/>
	<path fill="#3C3A40" d="M48.576,44.437L31.45,30.741c5.063-6.397,5-15.712-0.587-22.038c-3.262-3.693-7.961-5.812-12.892-5.812
		c-4.191,0-8.231,1.529-11.376,4.307c-3.442,3.041-5.494,7.239-5.778,11.822C0.532,23.604,2.05,28.024,5.09,31.467
		c3.262,3.693,7.961,5.812,12.892,5.812c0,0,0,0,0.001,0c4.19,0,8.23-1.53,11.375-4.308c0.012-0.011,0.022-0.022,0.034-0.033
		L46.703,46.78c0.276,0.221,0.607,0.328,0.936,0.328c0.44,0,0.876-0.192,1.173-0.563C49.328,45.898,49.224,44.954,48.576,44.437z
		 M27.372,30.723c-2.596,2.293-5.93,3.556-9.389,3.556c0,0,0,0-0.001,0c-4.071,0-7.951-1.749-10.644-4.798
		c-2.51-2.842-3.763-6.49-3.528-10.274c0.235-3.783,1.929-7.249,4.771-9.759c2.596-2.293,5.931-3.556,9.39-3.556
		c4.071,0,7.951,1.749,10.644,4.797C33.795,16.555,33.237,25.542,27.372,30.723z"/>
	<path fill="#ED6D4F" d="M23,18H13c-1.104,0-2,0.896-2,2s0.896,2,2,2h10c1.104,0,2-0.896,2-2S24.104,18,23,18z"/>
</g>
</svg>
