<?xml version="1.0" encoding="utf-8"?>
<!-- Generator: Adobe Illustrator 16.0.0, SVG Export Plug-In . SVG Version: 6.00 Build 0)  -->
<!DOCTYPE svg PUBLIC "-//W3C//DTD SVG 1.1//EN" "http://www.w3.org/Graphics/SVG/1.1/DTD/svg11.dtd">
<svg version="1.1" id="Layer_1" xmlns="http://www.w3.org/2000/svg" xmlns:xlink="http://www.w3.org/1999/xlink" x="0px" y="0px"
	 width="50px" height="50px" viewBox="0 0 50 50" enable-background="new 0 0 50 50" xml:space="preserve">
<g>
	<path fill="none" d="M28.615,11.124c-2.693-3.049-6.573-4.798-10.644-4.798c-3.459,0-6.794,1.263-9.391,3.555
		c-5.865,5.181-6.422,14.168-1.241,20.034c2.692,3.049,6.572,4.797,10.643,4.797c3.459,0,6.794-1.263,9.39-3.556
		c2.842-2.51,4.535-5.975,4.771-9.759C32.377,17.613,31.124,13.965,28.615,11.124z M23,22h-3v3c0,1.104-0.896,2-2,2s-2-0.896-2-2v-3
		h-3c-1.104,0-2-0.896-2-2s0.896-2,2-2h3v-3c0-1.104,0.896-2,2-2s2,0.896,2,2v3h3c1.104,0,2,0.896,2,2S24.104,22,23,22z"/>
	<path fill="#3C3A40" d="M48.576,44.87L31.455,31.178c2.168-2.729,3.461-6.042,3.682-9.595C35.421,17,33.903,12.58,30.863,9.138
		c-3.262-3.693-7.961-5.812-12.892-5.812c-4.191,0-8.231,1.529-11.376,4.307c-7.105,6.276-7.78,17.163-1.504,24.269
		c3.262,3.692,7.96,5.811,12.891,5.811c0,0,0,0,0,0c4.191,0,8.231-1.529,11.376-4.308c0.013-0.011,0.022-0.023,0.035-0.034
		l17.31,13.844c0.276,0.221,0.607,0.328,0.936,0.328c0.44,0,0.876-0.192,1.173-0.563C49.328,46.332,49.224,45.388,48.576,44.87z
		 M27.372,31.156c-2.596,2.293-5.931,3.556-9.39,3.556c-4.071,0-7.95-1.748-10.643-4.797C2.159,24.049,2.715,15.062,8.581,9.881
		c2.596-2.292,5.931-3.555,9.391-3.555c4.071,0,7.951,1.749,10.644,4.798c2.509,2.841,3.762,6.489,3.527,10.273
		C31.907,25.181,30.214,28.646,27.372,31.156z"/>
	<path fill="#ED6D4F" d="M23,18h-3v-3c0-1.104-0.896-2-2-2s-2,0.896-2,2v3h-3c-1.104,0-2,0.896-2,2s0.896,2,2,2h3v3
		c0,1.104,0.896,2,2,2s2-0.896,2-2v-3h3c1.104,0,2-0.896,2-2S24.104,18,23,18z"/>
</g>
</svg>
